<?xml version="1.0" encoding="UTF-8"?>
<svg id="b" data-name="Слой 2" xmlns="http://www.w3.org/2000/svg" viewBox="0 0 1829.74 1830">
  <g id="c" data-name="Illustration">
    <g id="d" data-name="Defective product">
      <g>
        <g>
          <g>
            <g>
              <path d="m1168.18,1238.96l-375.55,2.35c-2.43,0-3.23,2.26-3.23,4.43v319.52c0,30.59-213.38,110.07-215.46,106.03l-.26,33.82c-.02,6.3,5.52,11.88,12.58,11.88h319.66c14.61,0,29.04-3.27,42.27-8.81l173.13-72.9c31.17-13.12,50.82-41.31,50.82-72.05v-319.85c0-2.17-1.53-4.43-3.96-4.43Z"/>
              <g>
                <path d="m751.36,1222.7v319.59c0,31.5-20.28,60.21-52.13,73.81l-116.79,49.85c-7.63,3.26-5.03,13.48,3.43,13.48h320.88c14.43,0,28.68-2.85,41.73-8.34l129.4-54.48c32.1-13.51,52.57-42.33,52.57-73.99v-319.91c0-1.31-1.19-2.37-2.66-2.37h-373.78c-1.47,0-2.66,1.06-2.66,2.37Z" fill="#fff"/>
                <path d="m906.75,1681.63h-320.88c-5.82,0-9.21-3.82-9.98-7.6-.88-4.3,1.35-8.27,5.69-10.12l116.79-49.85c30.85-13.17,50.79-41.34,50.79-71.78v-319.59c0-2.52,2.18-4.58,4.86-4.58h373.78c2.68,0,4.87,2.05,4.87,4.58v319.91c0,32.39-21.17,62.24-53.92,76.03l-129.4,54.48c-13.23,5.57-27.96,8.52-42.59,8.52Zm-153.18-458.91v319.57c0,32.21-20.99,61.97-53.47,75.84l-116.79,49.85c-2.82,1.2-3.44,3.46-3.09,5.17.41,2.02,2.32,4.07,5.65,4.07h320.88c14.04,0,28.18-2.83,40.87-8.17l129.4-54.48c31.11-13.1,51.22-41.35,51.22-71.96v-319.91s-.17-.16-.45-.16h-373.78c-.26,0-.42.12-.45.18Z"/>
              </g>
            </g>
            <g>
              <path d="m51.78,1399.41l1544.21,3.34,26.81.06,49.85.11c14.17,0,25.81-10.98,27.61-24.94l129.11-1000.79c3.14-24.35-14.76-47.34-39.46-47.34l-1599.91,1.44L51.78,1399.41Z"/>
              <path d="m1729.91,325.19c27.85,0,50.49,28.05,46.93,55.74l-130.04,1001.3c-1.81,14.08-13.77,24.62-27.93,24.62l-12.19.46-1576.31-.46c-16.98,0-30.1-14.96-27.93-31.85L135.1,353.32c1.81-14.08,12.64-28.14,26.8-28.14h1568.01Z" fill="#fff"/>
              <g>
                <path d="m1676.66,371.56c26.05,0,47.23,25.45,43.89,50.58l-121.63,908.64c-1.69,12.78-12.88,22.34-26.12,22.34l-11.4.42-1474.33-.42c-15.89,0-28.16-13.58-26.12-28.9l124.08-927.13c1.69-12.78,11.82-25.53,25.07-25.53h1466.56Z" fill="#fff"/>
                <path d="m1561.48,1355.75l-1474.41-.42c-8.36,0-16.28-3.56-21.71-9.76-5.23-5.97-7.64-13.86-6.6-21.64l124.08-927.13c1.79-13.49,12.47-27.45,27.26-27.45h1466.56c12.75,0,25.24,5.9,34.25,16.19,9.23,10.53,13.54,23.98,11.83,36.88l-121.63,908.64c-1.83,13.83-14.01,24.26-28.31,24.26l-11.32.42ZM210.1,373.77c-12.19,0-21.37,12.26-22.88,23.62l-124.08,927.13c-.88,6.62,1.09,13.06,5.55,18.15,4.59,5.24,11.3,8.25,18.39,8.25l1474.33.42,11.32-.42c12.18,0,22.47-8.78,24.02-20.43l121.63-908.64c1.54-11.65-2.38-23.82-10.77-33.39-8.18-9.33-19.45-14.69-30.93-14.69H210.1Z"/>
              </g>
              <path d="m1680.99,1127.92c-.09,0-.19,0-.28-.02-1.21-.16-2.06-1.26-1.91-2.47l95.85-744.78c1.62-12.6-2.25-25.28-10.63-34.81-8.34-9.48-20.36-14.92-32.97-14.92l-188.6-.17c-1.22,0-2.21-.99-2.21-2.21,0-1.22.99-2.21,2.21-2.21l188.6.17c13.88,0,27.11,5.99,36.29,16.42,9.22,10.48,13.48,24.43,11.7,38.29l-95.85,744.78c-.14,1.11-1.09,1.93-2.19,1.93Z"/>
              <path d="m595.01,1408.04c-1.22,0-2.21-.99-2.21-2.2,0-1.22.98-2.21,2.2-2.21l384.28-.69h0c1.22,0,2.21.99,2.21,2.2,0,1.22-.99,2.21-2.2,2.21l-384.28.69h0Z"/>
              <path d="m30.38,1409.06c-8.72,0-17.02-3.76-22.78-10.31-5.78-6.58-8.46-15.33-7.34-24.03L132.91,353.04c1.95-15.13,14.9-26.55,30.12-26.55l979.67-4.59c1.28-.03,2.21.98,2.22,2.2,0,1.22-.98,2.21-2.2,2.22l-979.68,4.59c-13.02,0-24.09,9.76-25.75,22.7L4.63,1375.28c-.96,7.43,1.33,14.92,6.28,20.55,4.92,5.6,12.02,8.81,19.46,8.81l202.45-.37h0c1.22,0,2.21.99,2.21,2.2,0,1.22-.98,2.21-2.2,2.21l-202.45.37Z"/>
            </g>
          </g>
          <g>
            <path d="m921.92,410.66l-93.71,114.2,135.81,251.75-301.44,238.5,161.79,297.58c1.21,2.23,4.58.57,3.55-1.75l-125.59-282.58,125.88-112.63,62.94,76.19-66.25,142.44,82.81-129.19,106,112.63-159-208.69,152.38-122.56-139.13-255.06,57.75-118.39c1.18-2.42-2.09-4.52-3.8-2.44Z"/>
            <path d="m903.1,846.43l186.81,3.06,93.18,63.07c2.9,1.96,6.47,2.66,9.89,1.94l227.08-47.79c1.58-.3,2.15,1.99.62,2.47l-232.09,73.45c-5.8,1.84-12.13.72-16.96-2.98l-91.67-70.28-172.45-7.48c-5.54.37-9.92-14.75-4.42-15.46Z"/>
            <polygon points="840.89 535.39 736.57 486.19 802.82 380.19 769.69 476.25 870.34 514.78 840.89 535.39"/>
          </g>
        </g>
        <g>
          <g>
            <path d="m1624.74,613.64l-240.35-429.61c-21.93-39.2-78.35-39.2-100.29,0l-240.35,429.61c-21.43,38.3,6.26,85.51,50.14,85.51h480.69c43.89,0,71.57-47.21,50.14-85.51Z" fill="#fff"/>
            <path d="m1574.6,701.36h-480.69c-21.4,0-40.64-11.02-51.47-29.48-10.83-18.46-11.05-40.63-.6-59.31l240.35-429.6c10.7-19.12,30.16-30.53,52.07-30.53s41.37,11.41,52.07,30.53l240.35,429.6c10.45,18.68,10.22,40.85-.6,59.31-10.83,18.46-30.07,29.48-51.47,29.48Zm-240.35-544.52c-20.29,0-38.31,10.57-48.21,28.27l-240.35,429.6c-9.68,17.3-9.47,37.83.56,54.92,10.02,17.09,27.84,27.3,47.66,27.3h480.69c19.82,0,37.63-10.21,47.66-27.3,10.02-17.1,10.23-37.63.55-54.92l-240.35-429.6c-9.9-17.7-27.93-28.27-48.21-28.27Z"/>
          </g>
          <g>
            <path d="m1162.46,521.51c-.36,0-.74-.09-1.08-.28-1.07-.6-1.44-1.94-.85-3.01l155.66-278.23c3.71-6.63,10.46-10.59,18.06-10.59s14.35,3.96,18.06,10.59l16.67,29.79c.6,1.06.22,2.41-.85,3.01-1.07.6-2.41.22-3.01-.85l-16.67-29.79c-2.92-5.22-8.23-8.33-14.21-8.33s-11.29,3.11-14.21,8.33l-155.66,278.23c-.41.72-1.16,1.13-1.93,1.13Z"/>
            <path d="m1425.57,377.66c-.77,0-1.52-.41-1.93-1.13l-32.54-58.16c-.6-1.06-.21-2.41.85-3.01,1.06-.6,2.41-.22,3.01.85l32.54,58.16c.6,1.06.21,2.41-.85,3.01-.34.19-.71.28-1.08.28Z"/>
            <path d="m1542.92,643.77h-105.62c-1.22,0-2.21-.99-2.21-2.21s.99-2.21,2.21-2.21h105.62c5.84,0,11.09-3.01,14.04-8.04,2.95-5.04,3.01-11.09.16-16.18-.6-1.06-.21-2.41.85-3.01,1.06-.6,2.41-.21,3.01.85,3.62,6.48,3.55,14.17-.21,20.57-3.75,6.4-10.43,10.23-17.85,10.23Z"/>
            <path d="m1393.03,643.77h-267.45c-7.42,0-14.1-3.82-17.85-10.23-3.75-6.4-3.83-14.09-.21-20.57l27.98-50.01c.6-1.06,1.94-1.45,3.01-.85,1.07.6,1.44,1.94.85,3.01l-27.98,50.01c-2.85,5.1-2.79,11.14.16,16.18,2.95,5.04,8.2,8.04,14.04,8.04h267.45c1.22,0,2.21.99,2.21,2.21s-.99,2.21-2.21,2.21Z"/>
          </g>
          <g>
            <circle cx="1334.25" cy="585.62" r="31.24" transform="translate(526.02 1798.03) rotate(-80.01)"/>
            <path d="m1339.61,317.29h-10.71c-15.02,0-27.05,12.45-26.53,27.47l5.36,153.57c.5,14.29,12.23,25.62,26.53,25.62s26.03-11.33,26.53-25.62l5.36-153.57c.52-15.01-11.5-27.47-26.52-27.47Z"/>
          </g>
        </g>
        <g>
          <g>
            <g>
              <path d="m1746.12,1520c0,200.11-108.47,270.33-188.88,294.88h-133.92v-31.76c1.28.88,2.61,1.74,3.97,2.58,83.94-35.59,145.72-127.94,145.72-283.1,0-176.39-50.93-311.47-149.69-345.45v-30.13h149.52c196.72,52.92,173.28,392.98,173.28,392.98Z"/>
              <g>
                <path d="m1572.84,1127.34c-16.6-4.47-34.76-6.57-54.64-6.57h-146.02c-16.44,0-58.61,5.11-106.51,15.24-41.76,8.83-83.62,22.29-122.59,39.72l-16.27,7.23c-12.5,5.6-20.67,17.96-20.67,31.65l290.73-11.09v-31.71s-.93-8.13,26.11-14.74c.07-.01.2-.03.27-.06,10.75-2.6,25.95-4.95,47.33-6.47,15.25-1.08,33.65-1.72,55.87-1.72,132.33,0,200.94,149.05,200.94,353.76s-107.52,300.05-231.58,300.05c-18,0-33.25-2.47-46.16-6.7-8.41-2.74-15.81-6.23-22.36-10.26-1.36-.84-2.69-2.14-3.97-3.02-48.65-33.37-45.1-98.26-45.1-98.26h-271.26s-1.83,114.39,260.15,138.63c31.17,2.88,66.07,4.72,105.15,4.72,0,0,37.62,1.49,84.98-12.98,80.41-24.55,188.88-94.55,188.88-294.67,0,0,23.45-339.84-173.28-392.76Z" fill="#fff"/>
                <path d="m1475.1,1830c-1.86,0-2.87-.04-2.93-.04h-.06c-35.88,0-71.31-1.59-105.21-4.72-135.98-12.58-199.94-49.91-229.66-79.02-32.59-31.92-32.51-60.63-32.49-61.84.02-1.21,1-2.17,2.21-2.17h271.26c.61,0,1.19.25,1.6.69.42.44.64,1.03.6,1.64-.03.64-2.88,64.06,44.15,96.32.61.42,1.23.93,1.86,1.44.71.58,1.38,1.13,2.02,1.52,6.66,4.1,14.03,7.47,21.89,10.04,13.35,4.37,28.65,6.59,45.48,6.59,105.81,0,229.37-78,229.37-297.85,0-103.52-17.49-190.87-50.58-252.6-34.7-64.73-85.93-98.95-148.15-98.95-20.82,0-39.57.58-55.72,1.72-19.24,1.36-35.05,3.52-46.96,6.41-.14.04-.29.06-.38.08-23.72,5.79-24.32,12.42-24.32,12.48v31.79c0,1.19-.93,2.16-2.12,2.21l-290.73,11.09c-.6.02-1.18-.2-1.62-.62-.43-.42-.68-.99-.68-1.59,0-14.47,8.63-27.69,21.98-33.67l16.27-7.23c38.98-17.43,80.37-30.84,123.03-39.86,47.46-10.04,89.73-15.29,106.97-15.29h146.02c20.54,0,38.6,2.17,55.22,6.65,45.42,12.22,82.88,40.69,111.35,84.63,22.68,35,39.72,79.85,50.65,133.29,18.57,90.82,12.96,176.28,12.91,177.13,0,89.5-21.79,161.69-64.78,214.41-31.59,38.74-73.86,66.4-125.66,82.21-39.67,12.12-72.97,13.12-82.78,13.12Zm-365.8-143.38c.69,7.17,4.95,31.07,31.39,56.79,29.26,28.47,92.33,65.01,226.62,77.43,33.78,3.12,69.09,4.71,104.95,4.71.47.02,37.92,1.3,84.34-12.89,85.45-26.09,187.31-98.03,187.31-292.56.06-1,5.63-85.94-12.84-176.18-16.97-82.91-58.29-187.41-158.8-214.45-16.24-4.37-33.92-6.49-54.07-6.49h-146.02c-16.59,0-59.39,5.32-106.05,15.19-41.76,8.83-84,22.51-122.15,39.57l-16.27,7.23c-11.05,4.95-18.43,15.52-19.28,27.34l286.23-10.92v-29.49c-.13-2.02,1.04-10.44,27.8-16.97.05-.01.16-.03.23-.04.01,0,.03,0,.04-.01,12.15-2.94,28.2-5.14,47.69-6.52,16.25-1.15,35.1-1.73,56.03-1.73,63.95,0,116.52,35.02,152.04,101.28,33.43,62.37,51.1,150.44,51.1,254.69,0,96.06-24.14,174.98-69.8,228.22-40.94,47.74-99.18,74.04-163.99,74.04-17.29,0-33.06-2.29-46.85-6.81-8.18-2.67-15.86-6.19-22.83-10.47-.9-.55-1.71-1.22-2.5-1.87-.53-.43-1.05-.86-1.56-1.22-43.85-30.08-46.14-85.83-46.1-97.87h-266.67Zm313.13-531.64s0,0,0,0c0,0,0,0,0,0Z"/>
              </g>
              <g>
                <path d="m1725.18,1309.43l-41.13,39.14c-3.23,3.05-7.5,4.98-11.94,4.98h-100.56c-7.66,0-14.42-5.25-16.63-12.58l-9.34-31.08-8.14,31.23c-2.65,10.19-2.98,20.81-.97,31.14l14.48,74.28c3.93,20.15,21.58,34.63,42.11,34.63h55.09c19.1,0,35.9-12.56,41.21-30.91l17.22-59.41s0-.33,30.24-28.34c14.54-47.72-11.66-53.09-11.66-53.09Z" fill="#fff"/>
                <path d="m1648.17,1483.38h-55.09c-21.55,0-40.17-15.31-44.28-36.41l-14.48-74.28c-2.06-10.58-1.71-21.68,1-32.12l8.14-31.23c.25-.96,1.11-1.63,2.1-1.65,1.07-.02,1.87.62,2.16,1.57l9.34,31.08c1.96,6.48,7.92,11.01,14.51,11.01h100.56c3.68,0,7.48-1.6,10.42-4.38l41.12-39.13c.52-.5,1.25-.71,1.97-.56.33.07,8.03,1.74,13.23,10.47,6.12,10.29,6.15,25.57.1,45.42-.11.37-.33.71-.61.98-23.46,21.73-28.65,26.73-29.77,27.85l-17.07,58.89c-5.54,19.14-23.36,32.5-43.33,32.5Zm-102.43-165.31l-6.15,23.61c-2.58,9.94-2.9,20.09-.94,30.16l14.48,74.28c3.71,19.03,20.51,32.84,39.95,32.84h55.09c18.01,0,34.09-12.05,39.09-29.31l17.22-59.41h.02c.61-1.34,4.56-5.01,30.4-28.93,5.42-18.08,5.48-32.35.16-41.31-3.16-5.32-7.36-7.38-9.28-8.08l-40.2,38.26c-3.76,3.56-8.66,5.59-13.46,5.59h-100.56c-8.52,0-16.23-5.82-18.74-14.16l-7.07-23.54Z"/>
              </g>
            </g>
            <g>
              <g>
                <g>
                  <path d="m1099.69,1199.1l331.16-16.13c24.84-1.21,45.2,19.55,45.2,46.38v472.9c0,26.83-20.3,47.12-45.14,45.33l-331.23-23.9c-21.22-1.53-38.39-22.6-38.39-47.08v-431.32c0-24.47,17.18-45.14,38.4-46.18Z" fill="#fff"/>
                  <path d="m1433.95,1749.89c-1.06,0-2.13-.04-3.2-.12l-331.23-23.9c-22.3-1.61-40.44-23.72-40.44-49.28v-431.32c0-25.59,18.17-47.3,40.5-48.38l331.15-16.13c12.05-.59,23.56,3.73,32.41,12.16,9.6,9.14,15.11,22.42,15.11,36.43v472.9c0,14.02-5.5,27.19-15.1,36.11-8.06,7.5-18.33,11.53-29.21,11.53Zm-334.15-548.59c-20.02.98-36.3,20.7-36.3,43.97v431.32c0,23.3,16.3,43.43,36.34,44.87l331.23,23.9c10.84.78,21.14-2.86,29.08-10.24,8.7-8.1,13.69-20.08,13.69-32.88v-472.9c0-12.8-5.01-24.92-13.74-33.23-7.97-7.59-18.36-11.48-29.15-10.95l-331.16,16.13Z"/>
                </g>
                <g>
                  <path d="m1426.41,1699.85c0,26.56-19.27,46.66-43.6,44.9l-323.4-23.42c-20.83-1.51-37.12-22.37-37.12-46.62v-427.59c0-24.25,16.5-44.72,37.33-45.73l323.19-15.75c24.33-1.18,43.59,19.38,43.59,45.93v468.29Z" fill="#fff"/>
                  <path d="m1385.74,1747.07c-1.02,0-2.05-.04-3.09-.11l-323.4-23.42c-21.96-1.59-39.17-23.03-39.17-48.82v-427.59c0-25.38,17.69-46.88,39.43-47.94l323.19-15.75c11.53-.57,22.55,3.56,30.99,11.6,9.49,9.03,14.92,22.35,14.92,36.54v468.29c0,14.18-5.44,27.37-14.92,36.2-7.7,7.17-17.54,11.02-27.96,11.02Zm-.95-559.27c-.62,0-1.24.02-1.86.05l-323.19,15.75c-19.43.95-35.23,20.47-35.23,43.53v427.59c0,23.09,15.73,43.02,35.07,44.42l323.4,23.42c10.36.75,20.17-2.71,27.72-9.73,8.59-7.99,13.51-20,13.51-32.96v-468.29c0-12.98-4.94-25.14-13.55-33.34-7.1-6.76-16.22-10.43-25.87-10.43Z"/>
                </g>
                <path d="m1043.9,1270.19c0-21.51,14.92-39.57,33.47-40.35l286.72-12c21.28-.89,38.68,17.28,38.68,40.59v411.41c0,23.31-17.4,41.08-38.68,39.7l-286.72-18.63c-18.55-1.21-33.47-19.61-33.47-41.12v-379.6Z"/>
              </g>
              <g>
                <g>
                  <path d="m1487.27,1566.31c0,10.4-7.71,18.55-17.45,18.19l-9.75-.38c-9.65-.36-16.53-8.98-16.53-19.29v-177.56c0-10.3,6.98-18.73,16.64-18.82l10.05-.1c9.74-.09,17.04,8.27,17.04,18.68v179.29Z" fill="#fff"/>
                  <path d="m1470.44,1586.72c-.23,0-.47,0-.7-.01l-9.75-.38c-10.63-.39-18.65-9.63-18.65-21.5v-177.56c0-11.7,8.27-20.93,18.83-21.03l10.04-.1c4.92-.02,9.56,1.85,13.07,5.33,3.94,3.9,6.2,9.57,6.2,15.55v179.29c0,5.85-2.28,11.39-6.25,15.22-3.49,3.36-8.01,5.19-12.79,5.19Zm-.06-216.16s-.09,0-.13,0l-10.04.1c-8.24.07-14.45,7.22-14.45,16.61v177.56c0,9.43,6.19,16.78,14.4,17.08l9.75.38c3.81.14,7.47-1.26,10.26-3.94,3.11-3,4.89-7.38,4.89-12.04v-179.29c0-4.81-1.78-9.33-4.89-12.41-2.68-2.65-6.06-4.05-9.78-4.05Z"/>
                </g>
                <g>
                  <path d="m1452.41,1566.69c-1.22,0-2.21-.99-2.21-2.21v-107.53c0-1.22.99-2.21,2.21-2.21s2.21.99,2.21,2.21v107.53c0,1.22-.99,2.21-2.21,2.21Z"/>
                  <path d="m1452.41,1430.8c-1.22,0-2.21-.99-2.21-2.21v-38.99c0-1.22.99-2.21,2.21-2.21s2.21.99,2.21,2.21v38.99c0,1.22-.99,2.21-2.21,2.21Z"/>
                </g>
              </g>
            </g>
          </g>
          <g>
            <polygon points="1088.24 1669.06 1164.8 1614.58 1266.39 1527.72 1153.02 1592.5 1092.66 1501.22 1228.11 1331.9 1148.44 1414.14 1091.18 1473.24 1063.21 1496.8 1132.41 1596.92 1088.24 1669.06" fill="#fff"/>
            <polygon points="1144.92 1284.79 1144.92 1421.71 1158.91 1404.05 1144.92 1284.79" fill="#fff"/>
          </g>
          <polygon points="1353.99 1381.23 1268.6 1443.06 1352.52 1413.62 1305.4 1543.18 1367.24 1416.56 1365.77 1284.05 1353.99 1381.23" fill="#fff"/>
        </g>
        <g>
          <path d="m1492.58,277.1c-.82,0-1.6-.45-1.99-1.24-5.14-10.48-6.02-19.15-2.63-25.75,2.41-4.69,6.11-6.52,9.37-8.13,2.76-1.36,5.36-2.65,7.48-5.57,4.03-5.58,2.39-11.7.49-18.79-1.86-6.93-3.78-14.09-.23-21.29,4.29-8.71,13.15-10.44,21.73-12.1,8-1.56,15.56-3.03,19.88-9.73,4.91-7.63,2.06-16.67-.96-26.25-3.2-10.16-6.51-20.67-.34-30.02,5.17-7.82,13.82-9.79,21.46-11.53,7.19-1.63,13.41-3.05,16.28-8.54,4.01-7.67-.09-19.92-12.16-36.41-.72-.98-.51-2.37.48-3.09.98-.72,2.37-.51,3.09.48,13.34,18.21,17.43,31.65,12.52,41.06-3.82,7.31-11.64,9.09-19.22,10.81-7.49,1.7-14.56,3.31-18.75,9.65-5.01,7.59-2.15,16.66.87,26.26,3.19,10.13,6.49,20.6.46,29.97-5.33,8.29-14.58,10.09-22.75,11.67-8.2,1.59-15.29,2.97-18.61,9.72-2.81,5.72-1.19,11.78.53,18.2,2.01,7.49,4.08,15.24-1.18,22.52-2.76,3.81-6.13,5.48-9.1,6.95-3.03,1.5-5.65,2.79-7.4,6.19-2.72,5.3-1.82,12.63,2.67,21.79.53,1.1.08,2.42-1.01,2.95-.31.15-.64.23-.97.23Z"/>
          <path d="m1518.42,298.68c-.6,0-1.21-.25-1.64-.73-.82-.91-.74-2.3.16-3.12l111.2-100.11c.91-.82,2.3-.74,3.12.16.82.91.74,2.3-.16,3.12l-111.2,100.11c-.42.38-.95.57-1.48.57Z"/>
          <path d="m1600.85,35.01c-7.54,0-14.52-4.91-16.78-12.5-1.34-4.48-.85-9.21,1.37-13.32,2.22-4.11,5.91-7.11,10.39-8.45,4.48-1.34,9.21-.85,13.32,1.37,4.11,2.22,7.11,5.91,8.45,10.39,2.76,9.25-2.52,19.02-11.76,21.78-1.66.5-3.34.73-5,.73Zm4.37-2.85h.02-.02Zm-4.36-27.74c-1.26,0-2.52.18-3.76.55-3.35,1-6.11,3.24-7.77,6.32-1.66,3.07-2.03,6.61-1.03,9.96,2.06,6.91,9.38,10.86,16.28,8.8,6.91-2.06,10.86-9.37,8.8-16.28-1-3.35-3.24-6.11-6.32-7.77-1.94-1.05-4.06-1.58-6.2-1.58Z"/>
        </g>
      </g>
      <g>
        <g>
          <g>
            <g>
              <path d="m412.13,1662.63s16.15,44.32,31.23,57.5c15.09,13.18,74.16,38.11,75.96,67.32,2.1,33.93-17.42,40.88-70.67,30.41-38.47-7.57-70.76-29.84-82.47-42.77-10.35-11.43-5.13-21.63-3.17-35.5,2.41-17.02,2.39-34.29,1.81-51.47l-.95-28.1,48.26,2.61Z" fill="#fff"/>
              <path d="m485.66,1824.56c-9.85,0-22.15-1.52-37.43-4.52-39.31-7.73-72.19-30.76-83.68-43.46-9.01-9.95-7.12-19.42-5.13-29.44.5-2.52,1.02-5.12,1.41-7.85,2.5-17.73,2.31-35.77,1.79-51.09l-.95-28.1c-.02-.62.22-1.22.66-1.65.44-.43,1.06-.66,1.67-.63l48.26,2.61c.88.05,1.65.62,1.95,1.45.16.44,16.13,43.94,30.61,56.6,4.02,3.51,11.46,8,20.09,13.21,23.31,14.07,55.25,33.33,56.62,55.64.88,14.23-1.91,23.65-8.77,29.66-5.79,5.07-14.43,7.58-27.1,7.58Zm-119.5-162.2l.87,25.69c.53,15.51.72,33.8-1.83,51.86-.4,2.86-.93,5.52-1.45,8.1-2,10.05-3.45,17.31,4.07,25.61,11.11,12.28,43,34.57,81.26,42.09,33,6.49,51.74,5.86,60.77-2.04,5.75-5.03,8.06-13.32,7.27-26.07-1.23-20-32.02-38.57-54.5-52.13-8.8-5.31-16.4-9.9-20.71-13.66-14-12.24-28.43-49.29-31.35-57.04l-44.41-2.4Z"/>
            </g>
            <path d="m517.73,1803.81s-.06,0-.09,0l-18.83-.72c-48.72-1.87-94.89-21.25-130.01-54.59-4.72-4.48-7.31-7.29-7.42-7.41-.83-.9-.77-2.29.13-3.12.9-.83,2.29-.77,3.12.13.03.03,2.62,2.83,7.21,7.2,34.33,32.6,79.48,51.55,127.13,53.38l18.83.72c1.22.05,2.17,1.07,2.12,2.29-.05,1.19-1.03,2.12-2.21,2.12Z"/>
            <path d="m401.9,1735.58c-1.03,0-1.95-.72-2.16-1.77-.24-1.2.53-2.36,1.73-2.6.24-.05,24.41-5.06,33.05-17.17.71-.99,2.09-1.22,3.08-.51.99.71,1.22,2.09.51,3.08-9.66,13.53-34.71,18.72-35.77,18.93-.15.03-.29.04-.44.04Z"/>
            <path d="m424.75,1750c-.99,0-1.89-.67-2.14-1.68-.29-1.18.43-2.38,1.62-2.67.23-.06,22.99-5.8,29.33-17.4.58-1.07,1.93-1.46,3-.88,1.07.58,1.47,1.93.88,3-7.27,13.31-31.14,19.32-32.15,19.57-.18.04-.36.06-.53.06Z"/>
            <path d="m449.26,1763.51c-.87,0-1.69-.52-2.04-1.37-.46-1.13.08-2.42,1.2-2.88.19-.08,18.67-7.79,23.72-19.38.49-1.12,1.78-1.63,2.91-1.14,1.12.49,1.63,1.79,1.14,2.91-5.77,13.23-25.26,21.36-26.09,21.7-.27.11-.56.17-.84.17Z"/>
          </g>
          <g>
            <g>
              <path d="m295.64,1556.23c-1.78.06-27.29-1.6-42.04-2.57-5.73-.38-10.68,3.94-11.1,9.66l-1.98,26.73c-.7,9.45-2.28,18.81-4.62,27.99-4.26,16.67-10.41,45.34-6.07,58.18,4.64,13.74,18.3,32.62,27.27,43.33,4.14,4.94,10.9,6.73,16.94,4.47,10.8-4.04,28-11.67,37.89-22.26,15.19-16.26-2.82-45.87-2.82-45.87l-13.46-99.67Z" fill="#fff"/>
              <path d="m268.73,1727.19c-5.05,0-9.98-2.2-13.34-6.22-9.9-11.82-23.09-30.45-27.67-44.04-4.31-12.79.9-39.38,6.03-59.44,2.35-9.18,3.88-18.47,4.56-27.61l1.98-26.73c.51-6.91,6.52-12.15,13.45-11.7,24.91,1.65,40.63,2.63,41.82,2.57,1.11-.05,2.11.79,2.26,1.91l13.4,99.22c2.25,3.86,17.64,31.71,2.3,48.12-9.89,10.59-26.53,18.25-38.73,22.82-1.98.74-4.03,1.1-6.06,1.1Zm-15.82-171.35c-4.26,0-7.89,3.32-8.21,7.64l-1.98,26.73c-.7,9.4-2.27,18.94-4.69,28.37-4.08,15.95-10.3,44.55-6.12,56.93,4.11,12.17,16.46,30.18,26.87,42.62,3.52,4.2,9.34,5.74,14.47,3.82,9.63-3.6,27.25-11.21,37.05-21.69,13.86-14.84-2.92-42.94-3.09-43.22-.16-.26-.26-.55-.3-.85l-13.21-97.82c-4.94-.23-18.43-1.07-40.25-2.51-.18-.01-.36-.02-.54-.02Z"/>
            </g>
            <path d="m280.77,1722.39c-.67,0-1.32-.3-1.76-.87-32.6-42.71-30.88-54.24-27.11-79.51.77-5.19,1.65-11.06,2.3-17.91,1.73-18.24,7.06-68.4,7.11-68.91.13-1.21,1.25-2.09,2.43-1.96,1.21.13,2.09,1.22,1.96,2.43-.05.5-5.38,50.64-7.11,68.86-.66,6.96-1.54,12.9-2.32,18.14-3.58,24-5.21,34.95,26.26,76.18.74.97.55,2.36-.42,3.1-.4.31-.87.45-1.34.45Z"/>
            <path d="m273.96,1646.24c-1.05,0-1.98-.75-2.17-1.81-.22-1.2.58-2.35,1.78-2.57l28.52-5.19c1.21-.22,2.35.58,2.57,1.78.22,1.2-.58,2.35-1.78,2.57l-28.52,5.19c-.13.02-.27.04-.4.04Z"/>
            <path d="m277.61,1666.8c-1.05,0-1.98-.75-2.17-1.81-.22-1.2.58-2.35,1.78-2.57l28.52-5.19c1.2-.22,2.35.58,2.57,1.78.22,1.2-.58,2.35-1.78,2.57l-28.52,5.19c-.13.02-.27.04-.4.04Z"/>
          </g>
          <g>
            <path d="m309.17,1675.23c17.1,10.96,52.97,24.6,111.81,4.75l-47.73-601.82-106.64-22.45s-15.58,155.22,5.42,305.48c19.16,137.16,23.74,254.48,24.76,291.76.25,9.01,4.8,17.42,12.39,22.28Z"/>
            <path d="m264.99,1042.79l268.46,6,.83,293.32c.1,34.25-9.34,67.83-27.27,97-28.75,46.78-74.86,115.73-112.24,143.35-58.97,43.56-129.78-539.67-129.78-539.67Z"/>
            <path d="m416.16,1571.58c-1.19,0-2.17-.94-2.21-2.14l-10.41-337.84c-.04-1.22.92-2.24,2.14-2.28,1.17-.04,2.24.92,2.28,2.14l10.41,337.84c.04,1.22-.92,2.24-2.14,2.28-.02,0-.05,0-.07,0Z" fill="#fff"/>
          </g>
        </g>
        <g>
          <g>
            <path d="m552.73,462.47c1.22,17.63,1.17,29.3,1.17,29.3,0,0-10.3-23.97-15.8-37.08-7.88-18.8-20.34-24.04-13.96-.29,5.03,18.74,6.22,24.81,6.22,24.81,0,0-12.7-22.04-15.99-29.04-5.89-12.52-16.71-13.03-11.46,3.84,6.14,19.72,13.68,36.4,13.68,36.4,0,0-37.59-41.69-40.31-26.35-2.39,13.52,28.78,40.93,33.28,46.12,4.5,5.2-17.58-16.24-26.9-8.25-8.72,7.47,57.59,52.28,66.31,75.8,10.22,27.58,40.27,108.18,31.01,100.45-44.88-37.45-65.65-29.96-65.65-29.96l-31.67,50.13s91.98,68.74,160.98,69.49c55.95.61-23.26-146.74-54.88-201.93-7.92-13.83-13.01-28.84-14.92-44.1-3.11-24.89-7.9-61.42-10-67.91-5.69-17.6-12.21-7.47-11.1,8.59Z" fill="#fff"/>
            <path d="m643.98,770.04c-.12,0-.25,0-.37,0-68.92-.76-158.49-67.11-162.27-69.93-.92-.69-1.16-1.97-.54-2.95l31.67-50.13c.26-.42.66-.73,1.12-.9.89-.32,21.85-7.28,65.81,28.69-1.44-9.65-12.07-41.23-31.67-94.11l-.82-2.22c-4.19-11.29-22.82-28.24-39.26-43.19-17.92-16.3-28.06-25.81-27.97-31.67.02-1.36.56-2.53,1.56-3.39,4.08-3.5,9.78-2.59,15.14-.3-13.29-13.76-23.88-27.09-22.25-36.28.59-3.35,2.49-4.56,3.98-4.98,7-2.02,21.73,11.19,31.77,21.37-2.66-6.67-6.04-15.69-9.06-25.39-3.66-11.77.34-14.75,2.23-15.49,4.21-1.64,9.82,2.59,13.33,10.06,1.46,3.1,4.85,9.3,8.12,15.15-.7-2.7-1.52-5.83-2.48-9.41-2.91-10.84-2.33-17.04,1.71-18.43,5.51-1.88,12.38,7.64,16.42,17.29,3.13,7.46,7.85,18.53,11.32,26.63-.16-4.77-.45-10.85-.93-17.85-.64-9.29,1.04-19.12,6.25-20.12,3.55-.69,6.64,2.91,9.16,10.7,2.1,6.48,6.64,40.73,10.09,68.32,1.88,15.04,6.8,29.6,14.64,43.28,34.35,59.95,89.24,165.15,71.02,196.21-3.52,5.99-9.47,9.03-17.7,9.03Zm-158.35-72.27c12.67,9.14,95.56,67.17,158.03,67.85,6.79.07,11.47-2.16,14.22-6.85,12.31-20.97-14.25-92.66-71.04-191.78-8.13-14.19-13.24-29.31-15.19-44.93-4.84-38.73-8.35-62.71-9.91-67.51-2.32-7.18-4.16-7.72-4.18-7.72-.94.36-3.3,5.66-2.62,15.48,1.21,17.5,1.18,29.35,1.18,29.46,0,1.05-.74,1.95-1.77,2.16-1.02.21-2.06-.33-2.47-1.29-.1-.24-10.36-24.13-15.8-37.1-4.51-10.77-9.68-15-10.93-14.81.03,0-1.81,2.11,1.14,13.1,4.99,18.6,6.2,24.71,6.25,24.96.21,1.06-.38,2.11-1.39,2.49-1.01.38-2.15-.03-2.69-.97-.52-.9-12.78-22.2-16.07-29.2-2.83-6.01-6.53-8.28-7.74-7.82-.8.31-1.76,3.18.38,10.06,6.02,19.35,13.51,35.98,13.58,36.14.45.99.11,2.16-.8,2.76-.91.59-2.12.44-2.85-.37-13.5-14.97-30.98-30.31-35.64-28.95-.17.05-.61.18-.85,1.51-1.76,9.97,19.13,30.65,28.06,39.48,2.24,2.22,3.86,3.82,4.72,4.81.58.67,1.94,2.24.55,3.76-1.4,1.52-2.83.48-4.8-.96-11.52-8.41-19.22-11.07-22.88-7.93-1.11,3.32,15.51,18.43,26.51,28.43,16.81,15.29,35.87,32.62,40.43,44.92l.82,2.22c33.53,90.42,33.88,98.99,30.71,101.23-.55.39-2.04,1.11-4.01-.54-38.69-32.28-59.02-30.47-62.84-29.73l-30.09,47.63Z"/>
          </g>
          <g>
            <path d="m462.32,448.37c-28.12-15.59-60.48-10.15-81.55,3.81-26.66,17.67-33.08,47.89-37.61,69.21-8,37.68,4.67,46.19-3.75,69.33-14.92,40.97-61.82,33.91-85.24,67.97-35.72,51.96-1.65,177.07,78.3,202.61,53.32,17.04,105.88-20.32,120.18-30.49,43.4-30.85,89.8-92.3,79.82-151.56-8.25-49-51.79-77.68-38.96-125.26,3.27-12.12,7.8-16.61,8.56-30.67,1.23-22.83-8.22-57.46-39.76-74.95Z"/>
            <path d="m400.81,478.05c8-12.46-7.53-36.3-19.16-48.08-4.36-4.42-23.87-24.18-38.98-18.18-15.52,6.16-21.91,37.73-9.32,56.91,15.74,23.99,58.09,23.95,67.46,9.35Z"/>
          </g>
          <g>
            <path d="m262.24,1048.79c52.44,10.13,176.83,30.85,260.22,18.06,18.05-2.77,31.12-18.69,30.42-36.94-4.55-63.04-26.45-127.66-14.01-236.39,2.12-18.54,16.73-33.19,35.27-35.32l-3.31-97.6s-70.35-34.41-143.4-29.39c-36.83,2.53-77.42,20.99-108.6,38.68-31.81,18.04-48.76,54.2-42.53,90.24l16.08,93.02c4.8,27.77,1.55,56.33-9.37,82.31l-35.81,85.19c-5.06,12.03,2.23,25.65,15.04,28.13Z" fill="#fff"/>
            <path d="m461.8,1073.08c-75.55,0-160.75-14.55-199.98-22.12-6.76-1.31-12.5-5.54-15.75-11.61-3.25-6.07-3.58-13.19-.91-19.54l35.81-85.19c10.78-25.64,13.97-53.68,9.23-81.08l-16.08-93.02c-6.39-36.93,11.14-74.12,43.62-92.54,28.77-16.32,71.14-36.32,109.54-38.96,72.81-5,143.82,29.27,144.52,29.61.73.36,1.21,1.09,1.24,1.91l3.31,97.6c.04,1.15-.81,2.14-1.96,2.27-17.61,2.02-31.31,15.74-33.33,33.37-8.75,76.45-.49,130.76,6.79,178.68,3.02,19.89,5.88,38.67,7.22,57.3.75,19.49-13.14,36.34-32.29,39.28-18.68,2.87-39.45,4.05-60.99,4.05Zm-199.14-26.46c50.19,9.69,175.95,30.86,259.47,18.05,16.93-2.6,29.2-17.5,28.55-34.67-1.33-18.38-4.17-37.08-7.18-56.88-7.33-48.19-15.63-102.81-6.81-179.85,2.18-19.01,16.52-33.94,35.19-36.98l-3.2-94.26c-9.54-4.42-74.61-33.17-141.09-28.61-37.58,2.58-79.29,22.31-107.66,38.4-30.86,17.5-47.51,52.84-41.44,87.94l16.08,93.02c4.88,28.24,1.59,57.13-9.51,83.55l-35.81,85.19c-2.15,5.12-1.88,10.86.73,15.75,2.62,4.89,7.24,8.3,12.69,9.35Z"/>
          </g>
          <g>
            <g>
              <path d="m414.31,550.55c-.22,1.39-8.72,33.96-15.95,66.79-2.03,9.23-6.13,17.84-14.65,21.94l-26.99,12.97c-3.54,1.7-3.46,6.79.15,8.35,17.01,7.36,56.15,22.74,87.38,9.4,57.45-24.54,35.16-38.48,17.91-44.41-7.63-2.62-12.63-9.94-12.37-18.01.32-9.78.72-22.13.92-29.27,4.32,1.53,8.52,2.54,12.58,3.06,5.23.68,10.38-2.86,11.41-8.03,1.7-8.51,4.75-19.56,5.5-24.38.19-1.2,1-2.19,2.14-2.62,2.68-1,5.75-1.08,7.56-4.17.73-1.24.53-2.82-.35-3.95-7.62-9.84-5.78-29.46-8.3-38.77-9.04-33.44-57.51-9.1-66.93,51.09Z" fill="#fff"/>
              <path d="m416.55,677.46c-17.47,0-37.72-4.95-60.56-14.83-2.47-1.07-4.03-3.4-4.09-6.09-.05-2.7,1.43-5.11,3.86-6.28l26.99-12.97c6.74-3.24,11.14-9.92,13.45-20.42,5.3-24.08,11.31-48.1,14.2-59.64.92-3.68,1.65-6.58,1.73-7.03,6.45-41.19,30.82-66.93,50.66-68.01,10.04-.55,17.56,5.54,20.58,16.69.9,3.33,1.27,7.8,1.66,12.53.75,9.12,1.6,19.45,6.26,25.46,1.48,1.9,1.68,4.42.51,6.42-1.83,3.14-4.66,3.94-6.94,4.58-.59.17-1.18.33-1.75.55-.39.15-.66.48-.72.89-.4,2.59-1.4,6.71-2.55,11.48-1.01,4.19-2.16,8.93-2.96,12.99-1.24,6.22-7.47,10.61-13.86,9.79-3.32-.43-6.73-1.18-10.17-2.23-.21,7.28-.55,17.78-.83,26.32-.24,7.16,4.14,13.53,10.88,15.85,13.39,4.6,20.31,10.51,20.56,17.56.35,9.67-12.19,19.8-38.33,30.97-8.47,3.62-18.01,5.43-28.56,5.43Zm-.06-126.56c-.07.45-.49,2.14-1.81,7.4-2.88,11.52-8.88,35.5-14.17,59.52-2.62,11.92-7.81,19.59-15.85,23.45l-26.99,12.97c-1.29.62-1.36,1.85-1.36,2.21,0,.36.13,1.57,1.42,2.13,35.48,15.35,64.3,18.51,85.63,9.4,31.38-13.4,35.8-22.51,35.65-26.74-.18-4.9-6.42-9.71-17.59-13.54-8.58-2.95-14.15-11.06-13.85-20.17.32-9.78.72-22.13.92-29.26.02-.71.38-1.36.96-1.76.58-.4,1.32-.5,1.99-.26,4.11,1.45,8.19,2.45,12.12,2.95,4.15.53,8.16-2.28,8.96-6.27.82-4.14,1.98-8.93,3-13.16,1.08-4.48,2.11-8.72,2.48-11.12.31-1.98,1.67-3.65,3.55-4.35.68-.25,1.39-.46,2.09-.66,2.17-.61,3.44-1.04,4.33-2.56.24-.42.16-1.03-.19-1.48-5.46-7.05-6.37-18.08-7.17-27.81-.37-4.53-.72-8.8-1.52-11.74-2.46-9.1-8.18-13.87-16.08-13.44-17.7.96-40.52,25.82-46.54,64.3Zm-2.18-.34h.02-.02Z"/>
            </g>
            <path d="m447.64,579.43c-.18,0-.37-.02-.55-.07-15.77-4.08-23.54-15.88-23.87-16.38-.66-1.02-.37-2.39.66-3.05,1.02-.66,2.39-.37,3.05.66.08.13,7.23,10.88,21.26,14.5,1.18.31,1.89,1.51,1.59,2.69-.26,1-1.15,1.66-2.14,1.66Z"/>
          </g>
          <g>
            <path d="m440.8,542.62c-2.58,17.34-5.61,20.96-5.61,20.96,0,0-1.89-25.05-2.83-39.06-1.82-27.14-14.37-28.84-15.01-4.51-.5,19.19-1.08,25.29-1.08,25.29,0,0-5.88-24.39-7.05-31.94-2.08-13.5-15.54-14.25-13.82,1.23,2.26,20.3,6.24,41.51,6.24,41.51,0,0-13.66-22.66-19.11-31.82-5.79-9.73-17.05-7.55-12.09,5.06,5.41,13.75,14.37,33.71,17.19,39.87,2.82,6.16-12.19-20.18-23.35-15.08-10.44,4.77,7.13,18.02,17.1,37.91,14.2,28.35,23.1,27.33,24.76,52.07,1.95,29.01,3.76,86.17,4.61,98.06.41,5.69-5.15.56-12.51-8.42-13.41-16.38-72.14,22.16-50.6,46.25,24.89,27.83,59.88,60.22,95.08,70.54,53.25,15.61,19.32-145.97,4.75-207.01-3.65-15.29-4.26-30.95-1.76-46,4.08-24.53,8.18-51.58,8.76-58.31,1.42-16.4-10.66-16.86-13.68,3.41Z" fill="#fff"/>
            <path d="m449.51,853.8c-2.32,0-4.79-.38-7.41-1.15-36.34-10.65-72.32-44.59-96.11-71.19-5.23-5.85-6.6-13.02-3.94-20.73,5.48-15.88,26.1-29.96,41.19-32.66,7.54-1.35,13.31.13,16.7,4.26,4.6,5.62,7.18,8.09,8.54,9.18-.35-5.35-.83-17.06-1.43-31.69-.88-21.61-1.98-48.5-3.13-65.58-.99-14.77-4.62-19.91-10.64-28.41-3.77-5.33-8.45-11.96-13.89-22.82-3.53-7.05-8.01-13.2-11.96-18.63-5.55-7.62-9.56-13.13-8.36-17.69.52-1.98,1.96-3.52,4.29-4.59,5.71-2.61,11.82,1.1,16.74,5.7-3.76-8.5-8.41-19.28-11.71-27.67-2.98-7.56-.68-11.9,2.46-13.44,3.66-1.79,9.66-.14,13.58,6.45,3.05,5.12,8.66,14.46,13.01,21.7-1.33-8.04-3.03-19.19-4.24-30.01-1.05-9.43,3.03-13.37,6.85-13.87,4.52-.6,10.01,3.43,11.34,12.06.51,3.33,1.99,10.1,3.45,16.53.1-2.76.2-5.94.29-9.6.31-11.96,3.51-19.16,8.55-19.27.04,0,.07,0,.11,0,5.66,0,9.78,9.05,10.76,23.69.55,8.13,1.42,20.08,2.05,28.62.65-2.75,1.34-6.26,2-10.69,1.89-12.69,7.27-17.83,11.71-17.32,3.47.41,7.22,4.43,6.35,14.43-.56,6.46-4.5,32.69-8.79,58.48-2.46,14.81-1.88,30,1.73,45.12,15.81,66.23,38.43,181.05,12.34,205.85-3.46,3.29-7.63,4.94-12.45,4.94Zm-61.14-121.79c-1.51,0-3,.17-4.34.42-13.85,2.48-32.96,15.73-37.79,29.75-2.14,6.19-1.11,11.69,3.06,16.34,23.4,26.17,58.71,59.53,94.06,69.89,6.52,1.91,11.61,1.01,15.58-2.76,17.62-16.75,12.54-92.12-13.59-201.62-3.75-15.7-4.35-31.47-1.79-46.87,4.27-25.69,8.19-51.77,8.74-58.13.55-6.33-1.15-9.51-2.47-9.66-1.64-.17-5.34,3.59-6.83,13.58-2.6,17.45-5.75,21.63-6.1,22.05-.58.69-1.52.96-2.37.68-.86-.28-1.46-1.04-1.53-1.94-.02-.25-1.9-25.22-2.83-39.08-.99-14.78-5.06-19.56-6.37-19.56h-.01c-1.02.02-3.92,3.61-4.22,14.97-.5,19.05-1.07,25.19-1.09,25.44-.1,1.07-.97,1.92-2.04,1.99-1.09.08-2.05-.64-2.3-1.69-.24-1-5.92-24.57-7.08-32.12-.86-5.57-3.99-8.69-6.4-8.36-1.98.26-3.69,3.15-3.04,9.01,2.22,19.98,6.18,41.13,6.22,41.34.2,1.05-.39,2.09-1.38,2.47-1,.38-2.13,0-2.68-.92,0,0-13.67-22.67-19.12-31.83-2.44-4.1-5.97-5.65-7.84-4.74-1.73.85-1.84,3.93-.3,7.86,5.38,13.68,14.41,33.79,17.14,39.76.34.73,1.23,2.68-.53,3.75-1.77,1.07-2.84-.31-4.33-2.22-3.21-4.13-12.97-16.7-19.59-13.67-1.6.73-1.79,1.45-1.85,1.69-.66,2.54,3.38,8.09,7.66,13.97,3.85,5.29,8.64,11.87,12.34,19.25,5.29,10.56,9.87,17.04,13.55,22.24,6.24,8.83,10.36,14.66,11.44,30.67,1.15,17.14,2.25,44.06,3.14,65.69.6,14.76,1.12,27.51,1.47,32.36.21,2.98-1.01,4.11-2.07,4.53-2.4.95-5.51-.6-14.35-11.4-1.96-2.4-5.08-3.13-8.16-3.13Z"/>
          </g>
          <path d="m338.86,803.31c-6.34,0-12.65-2.62-17.12-7.72l-28.2-32.18c-.8-.92-.71-2.31.2-3.12.92-.81,2.31-.71,3.12.2l28.2,32.18c6.58,7.51,18.11,8.34,25.7,1.83.92-.79,2.32-.69,3.11.24.79.93.69,2.32-.24,3.11-4.26,3.65-9.53,5.44-14.77,5.44Z"/>
        </g>
      </g>
      <g>
        <g>
          <path d="m382.27,223.18c-.69,0-1.37-.32-1.8-.93-.71-.99-.48-2.37.52-3.08,57.32-40.82,119.61-72.94,185.13-95.48,1.16-.4,2.41.22,2.81,1.37.4,1.15-.22,2.41-1.37,2.81-65.12,22.39-127.03,54.32-184,94.9-.39.28-.84.41-1.28.41Z"/>
          <path d="m279.9,252.95c-.61,0-1.22-.25-1.66-.75-.81-.92-.72-2.31.2-3.12,93.25-82.01,198.33-139.55,312.32-171.03,1.17-.33,2.39.37,2.72,1.54.32,1.18-.37,2.39-1.54,2.72-113.35,31.3-217.84,88.53-310.58,170.09-.42.37-.94.55-1.46.55Z"/>
        </g>
        <g>
          <path d="m717.82,65.71c-.44,0-.89-.13-1.27-.4-1-.7-1.23-2.08-.53-3.08l9.89-13.99c.7-1,2.08-1.23,3.08-.53,1,.7,1.23,2.08.53,3.08l-9.89,13.99c-.43.61-1.11.93-1.81.93Z"/>
          <path d="m694.79,98.3c-.44,0-.89-.13-1.27-.41-1-.7-1.23-2.08-.53-3.08l9.89-13.99c.7-1,2.08-1.23,3.08-.53,1,.7,1.23,2.08.53,3.08l-9.89,13.99c-.43.61-1.11.93-1.81.93Z"/>
          <path d="m701.95,68.44c-.44,0-.89-.13-1.27-.4l-13.99-9.88c-1-.7-1.23-2.08-.53-3.08.7-1,2.08-1.23,3.08-.53l13.99,9.88c1,.7,1.23,2.08.53,3.08-.43.61-1.11.93-1.81.93Z"/>
          <path d="m734.54,91.46c-.44,0-.89-.13-1.27-.4l-13.99-9.89c-1-.7-1.23-2.08-.53-3.08.7-1,2.08-1.23,3.08-.53l13.99,9.89c1,.7,1.23,2.08.53,3.08-.43.61-1.11.93-1.81.93Z"/>
        </g>
        <path d="m643.19,95.64c-2.46,0-4.92-.49-7.25-1.48-4.6-1.94-8.17-5.55-10.05-10.17-1.88-4.62-1.85-9.7.09-14.3,1.94-4.6,5.55-8.17,10.17-10.05,4.62-1.88,9.7-1.85,14.3.09,4.6,1.94,8.17,5.55,10.05,10.17,1.88,4.62,1.85,9.7-.09,14.3-1.94,4.6-5.55,8.17-10.17,10.05-2.28.93-4.66,1.39-7.05,1.39Zm0-32.96c-1.82,0-3.64.35-5.38,1.06-3.53,1.44-6.29,4.16-7.77,7.67-1.48,3.51-1.5,7.39-.07,10.92,1.44,3.53,4.16,6.29,7.67,7.77,3.51,1.48,7.39,1.5,10.92.07,3.53-1.44,6.29-4.16,7.77-7.67,1.48-3.51,1.5-7.39.07-10.92-1.44-3.53-4.16-6.29-7.67-7.77-1.78-.75-3.66-1.13-5.54-1.13Z"/>
      </g>
      <g>
        <path d="m1004.3,149.21c1.74-5.64,4.53-11.05,8.44-15.98,18.23-22.99,53.64-26.75,79.09-8.39,22.63,16.33,29.75,44.64,18.23,66.88l6.1,4.39,15.89-4.85,12.24,11.1c.72-1.65,1.39-3.31,1.99-5,.66-1.86,2.45-3.12,4.56-3.26l15.88-1.08c2.57-.17,4.58-2.01,4.83-4.41l1.29-12.22c.25-2.41-1.32-4.75-3.78-5.64l-15.21-5.48c-2.02-.73-3.5-2.45-3.75-4.45-.33-2.65-.79-5.29-1.38-7.92-.44-1.97.39-3.94,2.09-5.06l12.79-8.45c2.07-1.37,2.77-3.95,1.7-6.21l-5.43-11.51c-1.07-2.27-3.64-3.62-6.17-3.25l-15.67,2.27c-2.08.3-4.24-.54-5.51-2.2-1.69-2.2-3.49-4.34-5.4-6.41-1.43-1.55-1.78-3.71-.95-5.51l6.23-13.54c1.01-2.19.23-4.83-1.88-6.35l-10.69-7.71c-2.11-1.52-4.98-1.52-6.91,0l-11.97,9.41c-1.59,1.25-3.86,1.51-5.82.62-2.62-1.19-5.26-2.26-7.94-3.21-2.02-.72-3.46-2.47-3.72-4.46l-1.98-14.99c-.32-2.43-2.38-4.42-4.96-4.78l-13.09-1.85c-2.58-.36-4.99.99-5.8,3.25l-5.04,14.04c-.67,1.86-2.43,3.16-4.54,3.29-2.81.17-5.6.47-8.37.89-2.08.31-4.22-.58-5.51-2.23l-9.67-12.47c-1.56-2.02-4.35-2.82-6.71-1.93l-11.98,4.51c-2.36.89-3.66,3.23-3.14,5.64l3.24,14.87c.43,1.97-.35,3.96-2.05,5.07-2.26,1.47-4.44,3.06-6.56,4.75-1.58,1.26-3.86,1.48-5.82.61l-14.76-6.58c-2.39-1.06-5.15-.47-6.66,1.43l-7.66,9.66c-1.51,1.9-1.36,4.61.37,6.51l10.65,11.75c1.42,1.56,1.82,3.72.97,5.51-.28.59-.53,1.19-.79,1.79l17.09.66,13.62,18.49Z"/>
        <path d="m1148.24,233.13l-10.87-11.57c-1.45-1.54-1.89-3.69-1.08-5.5.35-.77.65-1.56.97-2.34l-12.45-10.89-15.77,5.14-6.18-4.28c-1.38,2.8-3.02,5.51-4.99,8.09-17.74,23.34-53.03,27.73-78.82,9.81-20.26-14.08-28.62-37.74-22.67-58.56l-13.98-18.26-17.08-.36c-.77,1.84-1.49,3.69-2.1,5.57-.62,1.87-2.38,3.17-4.48,3.35l-15.84,1.36c-2.56.22-4.53,2.09-4.73,4.5l-1.04,12.26c-.2,2.42,1.41,4.73,3.89,5.57l15.31,5.21c2.03.69,3.55,2.39,3.84,4.39.39,2.65.9,5.28,1.54,7.9.48,1.97-.31,3.95-1.98,5.1l-12.6,8.69c-2.04,1.4-2.69,4-1.58,6.25l5.66,11.42c1.11,2.25,3.7,3.56,6.23,3.15l15.6-2.55c2.07-.34,4.25.46,5.55,2.1,1.73,2.17,3.57,4.28,5.52,6.32,1.46,1.53,1.86,3.68,1.06,5.5l-5.95,13.66c-.96,2.21-.13,4.84,2.01,6.32l10.83,7.53c2.14,1.48,5,1.43,6.9-.13l11.76-9.63c1.56-1.28,3.83-1.58,5.8-.73,2.64,1.14,5.3,2.17,8,3.07,2.03.68,3.5,2.41,3.81,4.4l2.28,14.97c.37,2.43,2.47,4.38,5.05,4.7l13.11,1.62c2.58.32,4.96-1.08,5.73-3.36l4.75-14.14c.63-1.87,2.36-3.21,4.47-3.38,2.8-.23,5.58-.57,8.34-1.04,2.07-.35,4.23.5,5.55,2.13l9.91,12.31c1.6,1.99,4.4,2.75,6.74,1.81l11.88-4.73c2.34-.93,3.59-3.3,3.02-5.7l-3.53-14.82c-.47-1.97.27-3.97,1.95-5.11,2.22-1.52,4.38-3.14,6.45-4.87,1.55-1.29,3.82-1.55,5.8-.71l14.87,6.32c2.41,1.02,5.16.38,6.62-1.55l7.46-9.81c1.47-1.93,1.26-4.63-.5-6.51Z"/>
      </g>
    </g>
  </g>
</svg>