<?xml version="1.0" encoding="utf-8"?>
<!-- Generator: Adobe Illustrator 28.0.0, SVG Export Plug-In . SVG Version: 6.00 Build 0)  -->
<svg version="1.1" id="b" xmlns="http://www.w3.org/2000/svg" xmlns:xlink="http://www.w3.org/1999/xlink" x="0px" y="0px"
	 viewBox="0 0 1829.7 1830" style="enable-background:new 0 0 1829.7 1830;" xml:space="preserve">
<g>
	<g>
		<path d="M938.8,480.5c-0.4,0-0.8,0-1.2-0.1c-21.1,66.1-42.2,132.2-63.2,198.1c18.4-4.7,36-9.4,53.8-13.6c4.4-1.1,5.7-3.2,5.8-7.3
			c0.3-11.2,0.9-22.3,1.3-33.4c1.2-35.4,2.4-70.9,3.4-106.3C939,505.5,938.8,493,938.8,480.5z M938.8,480.5c-0.4,0-0.8,0-1.2-0.1
			c-21.1,66.1-42.2,132.2-63.2,198.1c18.4-4.7,36-9.4,53.8-13.6c4.4-1.1,5.7-3.2,5.8-7.3c0.3-11.2,0.9-22.3,1.3-33.4
			c1.2-35.4,2.4-70.9,3.4-106.3C939,505.5,938.8,493,938.8,480.5z M938.8,480.5c-0.4,0-0.8,0-1.2-0.1
			c-21.1,66.1-42.2,132.2-63.2,198.1c18.4-4.7,36-9.4,53.8-13.6c4.4-1.1,5.7-3.2,5.8-7.3c0.3-11.2,0.9-22.3,1.3-33.4
			c1.2-35.4,2.4-70.9,3.4-106.3C939,505.5,938.8,493,938.8,480.5z M938.8,480.5c-0.4,0-0.8,0-1.2-0.1
			c-21.1,66.1-42.2,132.2-63.2,198.1c18.4-4.7,36-9.4,53.8-13.6c4.4-1.1,5.7-3.2,5.8-7.3c0.3-11.2,0.9-22.3,1.3-33.4
			c1.2-35.4,2.4-70.9,3.4-106.3C939,505.5,938.8,493,938.8,480.5z M938.8,480.5c-0.4,0-0.8,0-1.2-0.1
			c-21.1,66.1-42.2,132.2-63.2,198.1c18.4-4.7,36-9.4,53.8-13.6c4.4-1.1,5.7-3.2,5.8-7.3c0.3-11.2,0.9-22.3,1.3-33.4
			c1.2-35.4,2.4-70.9,3.4-106.3C939,505.5,938.8,493,938.8,480.5z M938.8,480.5c-0.4,0-0.8,0-1.2-0.1
			c-21.1,66.1-42.2,132.2-63.2,198.1c18.4-4.7,36-9.4,53.8-13.6c4.4-1.1,5.7-3.2,5.8-7.3c0.3-11.2,0.9-22.3,1.3-33.4
			c1.2-35.4,2.4-70.9,3.4-106.3C939,505.5,938.8,493,938.8,480.5z M938.8,480.5c-0.4,0-0.8,0-1.2-0.1
			c-21.1,66.1-42.2,132.2-63.2,198.1c18.4-4.7,36-9.4,53.8-13.6c4.4-1.1,5.7-3.2,5.8-7.3c0.3-11.2,0.9-22.3,1.3-33.4
			c1.2-35.4,2.4-70.9,3.4-106.3C939,505.5,938.8,493,938.8,480.5z M1119.6,1104.1c-3.2-19.1-7.6-37.8-18.3-56.5
			c-5.1,9.5-10.1,17.5-13.8,26c-13.1,30.1-19.8,61.8-22.4,94.3c-3.3,40.8-4.2,81.6-0.1,122.4c1.8,18.3,4.6,36.4,12.2,53.3
			c3.5,7.8,6.4,8.5,10.9,1.4c6.4-10.2,12.6-20.9,16.9-32.1c13-33.6,17.8-69,20.4-104.6C1127.9,1173.4,1125.3,1138.6,1119.6,1104.1z
			 M1119.6,1104.1c-3.2-19.1-7.6-37.8-18.3-56.5c-5.1,9.5-10.1,17.5-13.8,26c-13.1,30.1-19.8,61.8-22.4,94.3
			c-3.3,40.8-4.2,81.6-0.1,122.4c1.8,18.3,4.6,36.4,12.2,53.3c3.5,7.8,6.4,8.5,10.9,1.4c6.4-10.2,12.6-20.9,16.9-32.1
			c13-33.6,17.8-69,20.4-104.6C1127.9,1173.4,1125.3,1138.6,1119.6,1104.1z M938.8,480.5c-0.4,0-0.8,0-1.2-0.1
			c-21.1,66.1-42.2,132.2-63.2,198.1c18.4-4.7,36-9.4,53.8-13.6c4.4-1.1,5.7-3.2,5.8-7.3c0.3-11.2,0.9-22.3,1.3-33.4
			c1.2-35.4,2.4-70.9,3.4-106.3C939,505.5,938.8,493,938.8,480.5z M1823.6,1412c-3.8-2.1-7.8-4-11-6.9
			c-24.3-22.2-48.3-44.7-72.6-66.8c-3.4-3.1-4.4-6.3-3.6-10.6c4.3-22.9,8-45.9,12.8-68.8c13.3-63.4,27.4-126.5,40.4-190
			c12.3-60.1,21.7-120.8,27-182c3.6-41.1,6.3-82.4,3.7-123.6c-7.9-122.1-41.3-235.7-115.9-334.5c-38-50.3-80.8-96.2-132-133.6
			c-57.8-42.2-121.5-72.7-190.1-93.2c-53-15.8-107.1-26.5-161.8-34.6c-32.7-4.8-65.5-9.3-98.4-12.8c-25.1-2.7-50.5-3.9-75.7-5.2
			c-24.3-1.3-48.6-1.9-72.9-2.8c-1.4-0.1-2.7-0.5-4.1-0.8H918c-4.3,0.3-8.7,0.8-13,0.9c-121.4,2.6-241,18.7-358.6,49.3
			c-53.2,13.9-103.6,35.3-153.4,58.2c-62.4,28.7-123.5,59.7-179,100.4c-32.6,23.9-63,50.2-87.9,82.3c-6.2,8-12,16.5-17.2,25.2
			c-38.9,65-67.9,133.8-81.9,208.6c-17,91.5-23.5,183.7-14.8,276.3c9.9,105.4,35.4,207.1,80.9,303.4c39.7,84,90.4,160.3,156.1,226.2
			c41.8,41.9,89.9,75.7,140.7,105.8c66.2,39.3,136,70.1,211.3,87.2c66.1,14.9,133.1,17.3,200.4,12.1c65.3-5.1,128.6-20.6,191.8-36.5
			c110.5-27.9,220-59.8,325.5-103.3c75.6-31.2,149.4-66.8,224.1-100.5c22.5-10.1,45.1-20.1,67.6-30.4c15.1-6.9,30.8-8.6,47.2-8.1
			c43.8,1.3,86.8,8,129.7,16.7c11.1,2.2,22.4,3.3,33.7,4.6c3.5,0.4,7.6,0.4,8.5-4.4C1830.5,1415.1,1826.8,1413.8,1823.6,1412z
			 M394.9,534c-1.6,39.2-3.2,78.4-5.1,117.6c-2.1,44.8-4.7,89.5-6.6,134.3c-1.2,28.3-1.8,56.6-2.7,84.8
			c-1.2,39.8-2.8,79.7-3.6,119.5c-0.3,15.7,0.7,31.5,1.4,47.2c0.6,13.9-5.2,19.1-18.9,16.1c-14.2-3.1-27.2-9.1-39.1-17.3
			c-15.5-10.7-22.1-26.8-24.5-44.2c-3.8-26.6-6.9-53.3-8.7-80.1c-1.9-27.6-2.5-55.4-2.5-83c-0.1-44.8,0.2-89.7,1.5-134.5
			c1.2-42.8,3.8-85.6,5.9-128.3c0.5-9.5,1.2-18.9,2-30c-22,8.5-43.4,15.5-63.8,24.8c-23.2,10.5-45.6,22.7-68.1,34.6
			c-11.8,6.2-16.3,4.7-19.9-8.1c-1.8-6.7-3.2-13.5-4.7-20.2v-19.1c1.7-6.7,3.1-13.5,5.1-20.1c5.5-18.2,17.6-31.4,32.5-42.5
			c22.5-16.7,48.6-25.7,75-33.2c62.7-17.7,126.2-32.4,190.2-44.3c43.5-8.1,86.7-17.4,129.1-30c5.1-1.5,8.3,0.6,8.2,6.5
			c-0.2,6.5-1.1,13.1-2.2,19.5c-5.9,33.8-25.1,57.6-54.8,74.2c-25.1,14.1-52.7,20-80.5,25.6c-15,3-30,6.2-45.3,9.5
			C394.9,520.2,395.2,527.1,394.9,534z M597.8,891.3c-2.3-19.9,0.9-39.3,3.2-58.9c0.2-2,0.5-4,0.7-5.9c0.1-0.7-0.1-1.5-0.2-3
			c-3.4,1.8-6.4,3.3-9.3,5c-18.6,10.8-37.3,21.4-55.8,32.5c-2.3,1.4-4.5,4.7-4.7,7.3c-3.9,39.6-7.5,79.3-11.2,119
			c-0.5,5.5-1.2,11.1-2.1,16.6c-0.8,5.2-4.1,7.8-9.3,7c-17.9-2.9-35.2-7.8-49.8-18.8c-13.9-10.4-19.8-25.7-19.1-42.6
			c1-24,2.6-48.1,5.4-72c6.1-52.2,13.7-104.2,19.5-156.5c3.9-34.8,5.8-69.8,8.5-104.8c1.6-19.6,3.1-39.3,4.6-58.9
			c0.3-3.9,1.9-6.9,5.9-7c14.5-0.4,29.1-1.9,43.3,2.6c22.4,7.1,33.1,22.4,33.3,50c0.1,17.1-0.8,34.3-2.7,51.3
			c-4.8,43.5-10.5,87-15.8,130.5c-0.1,1.2,0,2.3,0,3.9c1.4-0.6,2.5-0.9,3.5-1.5c21.1-11.7,42.1-23.5,63.2-35c3.6-2,5.4-4.3,6-8.6
			c10-63.7,20.6-127.4,30.4-191.2c6-39.2,11-78.5,16-117.8c2.2-17,3.2-34.1,4.8-51.1c0.3-3.9,2.1-7.1,6.1-6.6
			c13.2,1.5,26.8,2.1,39.5,5.6c19.2,5.3,27.4,19.2,27.2,41.3c-0.2,20.5-1.8,41.1-4.9,61.3c-10.8,71.3-22.5,142.5-33.8,213.7
			c-0.4,2.3-0.6,4.6-0.8,6.6c8.2-1.6,15.9-3.5,23.7-4.4c9-1,16.1,3.4,18.8,11.7c3,9.3,4.6,19.3,5.9,29c1,7.3,1,14.7,0.7,22.1
			c-0.3,8.2-2.8,10-10.8,11.6c-15.2,3-30.3,6.6-45.5,9.8c-3.8,0.8-5.5,2.6-6,6.7c-4,31-8.3,62-12.6,92.9c-2.4,17-4.9,33.9-7.5,50.8
			c-1.5,9.7-5.2,12-15,10.3c-2.2-0.4-4.3-0.7-6.5-1.2C614.8,937.9,601.4,922.1,597.8,891.3z M923,1157.3
			c-4.8,51.8-10,103.5-16.3,155.1c-4.5,36.8-11.5,73.2-16.5,109.9c-5.6,40.8-10.3,81.8-15.5,122.7c-0.7,5.1-1.6,10.2-2.6,15.3
			c-1.1,5.4-4.7,8.8-10.1,8.3c-10.8-1.1-22-1.7-32.3-4.8c-18.3-5.4-24.8-20.8-25.5-38c-0.8-18.2,0.3-36.6,1.5-54.8
			c1.4-20.4,3.8-40.8,6.1-61.2c0.4-3.9-1.9-4-4.3-5.1c-20.4-8.9-40.9-17.7-61.1-26.9c-19.9-9-33.3-24.6-39.2-45.1
			c-10-34.6-19.2-69.4-27.4-104.5c-10.1-43.2-18.8-86.8-28.1-130.2c-2.1-9.8,0.3-13.2,10-13.1c18.5,0.1,36.5,2.8,54,8.8
			c15.5,5.3,27,15.1,31.9,30.8c7,22.4,14.1,44.9,19.2,67.7c9.5,42.2,17.8,84.6,32.5,125.4c3.8,10.5,8.7,20.5,13.2,30.7
			c1.2,2.6,2.9,5,4.4,7.5c0.4-0.2,0.8-0.4,1.2-0.6c7.2-56.7,14.8-113.3,21.3-170.1c3.2-27.7,4.3-55.6,6.4-83.4
			c0.8-10.9,1.5-21.9,2.6-32.8c0.7-7,3.8-9.5,10.7-8.9c6.7,0.5,13.5,1,20.2,2.1c28.5,4.7,41.6,17.8,44.1,46.4
			C924.6,1124.6,924.5,1141.1,923,1157.3z M928.5,847c-0.7-29.8,0.3-59.7,0.5-89.6c0.1-7.5,0-15.1,0-23.5
			c-11.2,3.2-22.6,5.8-33.6,9.6c-13.7,4.7-27.2,10.2-40.7,15.7c-2.2,0.9-4.8,3.3-5.3,5.5c-10.3,41.1-20.4,82.2-30.5,123.4
			c-1.4,5.6-1.8,11.4-3.1,17c-1,4.7-4.3,8.1-9.1,6.2c-17.6-7.1-35.4-14-44.1-33.2c-5.8-13-5.6-26.5-3.6-39.9
			c5.8-39,18.4-76.2,29.3-113.9C808,655.6,826.8,586.6,847,518c11.8-40.3,25.1-80.2,38.5-120c3.2-9.6,9.2-18.4,14.7-27.2
			c5.6-8.9,14.7-12.1,24.8-10.9c14.2,1.8,28.4,3.9,42.4,7c17.4,3.8,29.4,15,33.9,32.1c4.2,15.9,7.8,32.3,8.4,48.7
			c1.5,37.4,1.3,74.9,1.1,112.4c-0.1,22.9-1.4,45.8-2.1,68.7c-0.1,2,0,4,0,6.7c2-0.9,3.6-1.5,5-2.4c10.9-7.3,21.8-14.7,32.6-22.2
			c7-4.8,13.1-3.3,14.8,5.1c5.2,25.8,3.3,50.9-10.4,74c-8.4,14.2-22.3,21.4-37.8,25.3c-5.6,1.4-8.1,3.3-8.2,9.6
			c-0.7,49.2-1.9,98.4-2.8,147.6c-0.1,2.4,0.5,4.8,0.7,7.1c0.5,8.7-3,13-11.7,12.9c-5.3,0-10.7-0.9-15.9-2.1c-5.6-1.3-11-3.5-16.6-5
			C938.3,880.3,928.9,866.2,928.5,847z M1201.1,1281.3c-8.8,29.9-22.8,57.4-42.8,81.5c-13.1,15.8-28.1,29.1-49.1,32.8
			c-13.1,2.3-26.2,0.3-39.1-2.8c-12.2-3-24.3-6-36.4-9.4c-11-3.1-19.2-10.1-26.2-19c-15.9-20-23.7-43.3-27.5-67.9
			c-3.4-21.6-4.9-43.5-6.1-54.7c1-55.4,6.5-99.4,21.4-141.7c8.3-23.6,19.6-45.7,36.3-64.8c11.4-13.1,24.3-20.3,42.5-16.3
			c32.8,7.3,65.9,13.7,98.7,20.8c3.4,0.8,7.2,3.6,9.3,6.5c12.8,17.8,19.8,38.2,24.3,59.3C1218.8,1164.6,1218.1,1223.4,1201.1,1281.3
			z M1239,798.3c-9.1-24.8-17.3-50-24.6-75.4c-11.3-39.4-21.6-79.1-32.5-119.4c-1.5,6.8-3,13.1-4.2,19.4
			c-9.2,49.7-18.7,99.4-27.5,149.2c-3.3,19-5.1,38.3-7.6,57.4c-0.3,2.2-0.8,4.3-1.4,6.4c-2,7.3-6.2,10-13.4,7.4
			c-18.4-6.5-34.6-16.3-46.4-32.2c-5.2-7-7.6-15.1-7.2-23.6c1-18.9,1.2-37.9,4.3-56.5c14.1-86.9,28.9-173.6,43.7-260.4
			c4.2-24.6,9.4-48.9,19.3-72c2.4-5.7,5.4-11.1,8.6-16.4c3.2-5.2,8.1-7.3,14.3-6.8c17.4,1.4,34.3,4.7,49.8,13.2
			c10.5,5.7,19.1,13,21.8,25.4c4.7,21.4,9.3,42.8,14,64.2c12.5,56.6,24.9,113.2,37.4,169.8c0.5,2.3,1.2,4.5,2.9,7
			c2.1-8,4.2-16.1,6.3-24.1c14.4-56.4,23.9-113.8,32.5-171.3c3.1-20.7,5.5-41.4,8.3-62.1c1.5-11.5,5.1-13.6,15.4-8.8
			c8.3,3.9,16.9,7.4,24.7,12.1c6.9,4.2,13.2,9.6,19.1,15.1c5.9,5.5,7.2,13,7.1,20.9c-0.3,32.4-3.7,64.5-10.2,96.1
			c-17.7,85.4-36.9,170.4-60.8,254.3c-3.4,11.9-9.1,23.3-14.1,34.7c-2.5,5.8-8.1,7.7-13.8,8c-18.1,0.9-35.7-2.5-50.9-12.2
			C1247.3,813.8,1241.7,805.8,1239,798.3z M1450,1133.9c-4.9,36.7-10.3,73.4-21.5,108.9c-4.8,15.1-11.1,29.4-20.4,42.3
			c-11.2,15.3-25.8,23.4-45.3,23.2c-19.6-0.2-37.8-5.1-55.5-12.6c-24.4-10.4-38.4-29.2-42.6-55.1c-2-12.6-3.7-25.3-3.6-38
			c0.4-54.2,1.6-108.4,2.3-162.6c0.1-9-0.1-17.9-0.2-26.9c-0.1-5.7,2.4-9,8.3-9.6c8.5-0.8,17-2.2,25.5-2.3
			c30.2-0.3,45.6,14.7,45.4,45c-0.1,19.1-1.5,38.2-2.8,57.3c-2.3,34-5.6,67.9-7,102c-0.7,17,1.1,34.2,2.8,51.2
			c0.7,6.7,4.1,13.2,6.5,20.7c8.9-6.6,13.8-14.2,17.5-22.8c10.5-24.8,16.3-50.8,19.8-77.3c2.9-21.9,6.1-43.8,7.7-65.8
			c2.5-35.3,4.8-70.8-1.8-106.1c-1.5-7.9,1.9-11,9.6-8.8c6,1.7,11.8,3.5,17.8,5.1c25.3,6.8,36.8,24.6,40.1,49.4
			C1456.3,1078.8,1453.6,1106.4,1450,1133.9z M1560.8,1243c-1.9,11.8-3.7,23.6-5.7,35.4c-2,11.5-3.9,13-15.8,12.9
			c-2.8-0.2-5.6-0.1-8.3-0.5c-20.1-3.1-30.1-16.8-26.7-37c1.7-10,3.6-20,5.7-29.9c1.9-8.6,4.1-9.7,13-8.8c11.4,1.2,22.2,3,31.4,11.2
			C1559.7,1231.1,1561.9,1236.2,1560.8,1243z M1591.3,1043.1c-1,23.6-7.5,56.2-13.6,88.9c-2.9,15.6-4.9,31.4-6.8,47.2
			c-1.3,10.7-1.8,11.8-12.5,12.4c-4.5,0.2-9.3,0.5-13.7-0.4c-16-3.4-25.6-14.6-25.3-31.6c0.4-19.1,1.9-38.2,4.1-57.1
			c3.7-31.8,8.2-63.5,12.5-95.3c0.3-2.6,0.7-5.1,1.2-7.7c1.4-7.5,4.6-9.7,12.2-8.5c2.8,0.4,5.5,0.7,8.3,1.2
			C1582.6,996.5,1592.2,1008.1,1591.3,1043.1z M1624.1,598.8c-12.9,16.1-30.2,27.1-47,38.5c-9.2,6.3-18.6,12.3-28.4,18.7
			c10.8,8.4,14.9,20.3,18.9,32.1c5.7,16.8,11.3,33.6,16.2,50.7c9.4,32.4,20.7,64,35.5,94.4c4.3,8.9,2.3,13.5-7.3,15.9
			c-36.4,9.2-65-1.1-82.2-37.7c-8.1-17.2-10.3-35.9-14-54.2c-4.5-22-9.6-44-14.5-65.9c-0.2-0.7-0.7-1.4-1.1-2.3
			c-9.1,4.6-16.7,9.1-19.1,20.7c-6.7,32.1-14.9,63.9-22.5,95.8c-2.3,9.7-5.2,11.3-14.3,7.8c-30.1-11.5-43.8-34.6-37.7-68.6
			c6.5-36.4,14.4-72.6,23.2-108.6c13.3-54.5,27.9-108.8,42-163.1c2-7.7,4.8-15.2,7-22.8c1.4-4.8,4.7-6.2,9.2-5
			c13.8,3.6,26.7,9.2,38.1,18c12.5,9.7,13.8,22.7,10.6,36.7c-3.6,15.2-7.7,30.4-11.7,45.5c-6.5,24.8-13.1,49.6-19.7,74.5
			c0.7,0,1.1,0.1,1.2,0c24.8-23.7,51.2-45.9,69.7-75.2c8.8-13.9,16-28.8,23.4-43.5c2.5-4.8,5.7-6.4,10.5-5.2
			c16.1,4,26.8,13.9,31.2,29.8C1648.8,552.9,1641.3,577.3,1624.1,598.8z M1101.3,1047.6c-5.1,9.5-10.1,17.5-13.8,26
			c-13.1,30.1-19.8,61.8-22.4,94.3c-3.3,40.8-4.2,81.6-0.1,122.4c1.8,18.3,4.6,36.4,12.2,53.3c3.5,7.8,6.4,8.5,10.9,1.4
			c6.4-10.2,12.6-20.9,16.9-32.1c13-33.6,17.8-69,20.4-104.6c2.5-34.9-0.1-69.7-5.8-104.2C1116.4,1085,1111.9,1066.3,1101.3,1047.6z
			 M937.5,480.5c-21.1,66.1-42.2,132.2-63.2,198.1c18.4-4.7,36-9.4,53.8-13.6c4.4-1.1,5.7-3.2,5.8-7.3c0.3-11.2,0.9-22.3,1.3-33.4
			c1.2-35.4,2.4-70.9,3.4-106.3c0.3-12.5,0.1-25,0.1-37.5C938.3,480.5,937.9,480.5,937.5,480.5z M938.8,480.5c-0.4,0-0.8,0-1.2-0.1
			c-21.1,66.1-42.2,132.2-63.2,198.1c18.4-4.7,36-9.4,53.8-13.6c4.4-1.1,5.7-3.2,5.8-7.3c0.3-11.2,0.9-22.3,1.3-33.4
			c1.2-35.4,2.4-70.9,3.4-106.3C939,505.5,938.8,493,938.8,480.5z M938.8,480.5c-0.4,0-0.8,0-1.2-0.1
			c-21.1,66.1-42.2,132.2-63.2,198.1c18.4-4.7,36-9.4,53.8-13.6c4.4-1.1,5.7-3.2,5.8-7.3c0.3-11.2,0.9-22.3,1.3-33.4
			c1.2-35.4,2.4-70.9,3.4-106.3C939,505.5,938.8,493,938.8,480.5z M938.8,480.5c-0.4,0-0.8,0-1.2-0.1
			c-21.1,66.1-42.2,132.2-63.2,198.1c18.4-4.7,36-9.4,53.8-13.6c4.4-1.1,5.7-3.2,5.8-7.3c0.3-11.2,0.9-22.3,1.3-33.4
			c1.2-35.4,2.4-70.9,3.4-106.3C939,505.5,938.8,493,938.8,480.5z M938.8,480.5c-0.4,0-0.8,0-1.2-0.1
			c-21.1,66.1-42.2,132.2-63.2,198.1c18.4-4.7,36-9.4,53.8-13.6c4.4-1.1,5.7-3.2,5.8-7.3c0.3-11.2,0.9-22.3,1.3-33.4
			c1.2-35.4,2.4-70.9,3.4-106.3C939,505.5,938.8,493,938.8,480.5z M938.8,480.5c-0.4,0-0.8,0-1.2-0.1
			c-21.1,66.1-42.2,132.2-63.2,198.1c18.4-4.7,36-9.4,53.8-13.6c4.4-1.1,5.7-3.2,5.8-7.3c0.3-11.2,0.9-22.3,1.3-33.4
			c1.2-35.4,2.4-70.9,3.4-106.3C939,505.5,938.8,493,938.8,480.5z M938.8,480.5c-0.4,0-0.8,0-1.2-0.1
			c-21.1,66.1-42.2,132.2-63.2,198.1c18.4-4.7,36-9.4,53.8-13.6c4.4-1.1,5.7-3.2,5.8-7.3c0.3-11.2,0.9-22.3,1.3-33.4
			c1.2-35.4,2.4-70.9,3.4-106.3C939,505.5,938.8,493,938.8,480.5z"/>
	</g>
</g>
</svg>
