<?xml version="1.0" encoding="UTF-8"?>
<svg id="mastercard" data-name="mastercard" xmlns="http://www.w3.org/2000/svg" viewBox="0 0 25.6 15.6">
  <path d="m12.1,14.1l.2.2c-1.3.8-2.8,1.3-4.4,1.3C3.5,15.6,0,12.1,0,7.8S3.5,0,7.9,0c1.6,0,3.1.5,4.4,1.3q-.1.1-.2.2c-1.9,1.6-2.9,3.9-2.9,6.3,0,2.4,1,4.7,2.9,6.3ZM17.7,0C16.1,0,14.6.5,13.3,1.3q.1.1.2.2c1.9,1.6,2.9,3.9,2.9,6.3s-1.1,4.7-2.9,6.3l-.2.2c1.3.8,2.8,1.3,4.4,1.3,4.4,0,7.9-3.5,7.9-7.8C25.6,3.5,22,0,17.7,0Zm-4.9,1.7c-.1.1-.2.2-.3.2-1.7,1.4-2.7,3.5-2.7,5.9s1.1,4.4,2.7,5.9c.1.1.2.2.3.2.1-.1.2-.2.3-.2,1.7-1.4,2.7-3.5,2.7-5.9s-1.1-4.4-2.7-5.9c-.1,0-.2-.1-.3-.2Z" fill="#878787"/>
</svg>