<?xml version="1.0" encoding="UTF-8"?>
<svg xmlns="http://www.w3.org/2000/svg" viewBox="0 0 64 64" width="512" height="512"><g id="_26-Measuring_Tape" data-name="26-Measuring Tape"><path d="M59,36H46V25c0-7.29-9.66357-13-22-13S2,17.71,2,25V39c0,7.29,9.66357,13,22,13H59a3.00328,3.00328,0,0,0,3-3V39A3.00328,3.00328,0,0,0,59,36ZM44,36H35.84436A18.11219,18.11219,0,0,0,44,30.47668ZM24,14c11.02783,0,20,4.93457,20,11S35.02783,36,24,36,4,31.06543,4,25,12.97217,14,24,14ZM22,49.94427V43a1,1,0,0,0-2,0v6.77826a32.49821,32.49821,0,0,1-4-.70313V46a1,1,0,0,0-2,0v2.5116a23.4505,23.4505,0,0,1-4-1.66938V40a1,1,0,0,0-2,0v5.572C5.50018,43.73578,4,41.46521,4,39V30.47668C7.43939,34.9527,14.99817,38,24,38H51.02557A4.95129,4.95129,0,0,0,50,41v6a4.95129,4.95129,0,0,0,1.02557,3H46V43a1,1,0,0,0-2,0v7H40V47a1,1,0,0,0-2,0v3H34V43a1,1,0,0,0-2,0v7H28V47a1,1,0,0,0-2,0v3H24Q22.98734,50,22,49.94427ZM60,49a1.001,1.001,0,0,1-1,1H55a3.00328,3.00328,0,0,1-3-3V41a3.00328,3.00328,0,0,1,3-3h4a1.001,1.001,0,0,1,1,1ZM24,31c6.84131,0,12-2.5791,12-6s-5.15869-6-12-6-12,2.5791-12,6S17.15869,31,24,31Zm0-10c5.72363,0,10,2.11133,10,4s-4.27637,4-10,4-10-2.11133-10-4S18.27637,21,24,21ZM56,42v4a1,1,0,0,1-2,0V42a1,1,0,0,1,2,0Z"/></g></svg>
