<?xml version="1.0" encoding="UTF-8" standalone="no"?>
<!DOCTYPE svg PUBLIC "-//W3C//DTD SVG 1.1//EN" "http://www.w3.org/Graphics/SVG/1.1/DTD/svg11.dtd">
<svg xmlns="http://www.w3.org/2000/svg" version="1.1" viewBox="0 0 512 512">
<path fill="#000000" d="
  M 512.00 74.06
  L 512.00 77.31
  Q 511.35 83.34 509.00 95.00
  Q 475.08 263.42 440.77 431.77
  Q 438.60 442.45 436.98 446.52
  Q 434.05 453.88 428.94 459.69
  Q 418.80 471.21 404.14 472.04
  Q 396.56 472.47 388.60 469.78
  Q 380.73 467.13 374.56 462.19
  Q 333.33 429.19 292.56 396.25
  A 0.91 0.90 42.9 0 0 291.38 396.29
  Q 267.37 418.57 243.74 440.17
  Q 233.43 449.58 231.50 451.02
  Q 224.51 456.23 216.75 458.50
  Q 195.65 464.67 179.33 449.40
  Q 170.65 441.28 166.25 428.75
  Q 142.02 359.81 117.98 290.92
  A 0.92 0.92 89.0 0 0 117.38 290.36
  Q 76.50 278.62 35.96 267.14
  Q 29.79 265.39 23.76 263.23
  Q 15.70 260.33 9.16 254.82
  Q 1.29 248.20 0.00 237.94
  L 0.00 235.19
  Q 1.25 224.65 8.81 218.06
  Q 16.11 211.71 26.20 207.86
  Q 243.37 125.11 460.50 42.25
  Q 466.66 39.90 474.25 39.22
  Q 486.59 38.10 496.17 44.10
  Q 503.61 48.75 507.76 56.79
  Q 511.83 64.67 512.00 74.06
  Z
  M 37.99 236.47
  L 126.53 261.83
  A 3.65 3.64 39.5 0 0 129.17 261.58
  Q 255.51 196.77 381.84 132.59
  Q 387.71 129.60 391.23 129.38
  Q 399.33 128.87 404.06 136.19
  Q 408.05 142.34 405.94 148.56
  Q 404.78 151.99 399.19 157.94
  Q 323.06 239.06 246.72 320.03
  A 0.57 0.56 -49.0 0 0 246.77 320.86
  Q 318.96 379.05 391.29 437.49
  Q 396.12 441.39 400.50 442.00
  Q 404.61 442.57 406.81 439.56
  Q 409.57 435.80 410.64 430.53
  Q 445.69 256.99 480.76 83.46
  Q 480.77 83.38 481.31 81.05
  Q 482.31 76.71 481.66 72.26
  Q 481.10 68.39 477.01 69.03
  Q 471.60 69.88 466.58 71.96
  Q 461.94 73.88 461.86 73.91
  Q 250.39 154.48 37.95 235.65
  Q 36.74 236.11 37.99 236.47
  Z
  M 267.38 254.37
  Q 293.40 226.65 319.57 199.05
  Q 321.82 196.69 318.92 198.17
  L 148.78 285.25
  A 1.15 1.15 -23.4 0 0 148.22 286.66
  L 188.41 401.74
  Q 188.86 403.03 189.18 401.70
  Q 198.80 362.42 208.58 323.20
  Q 208.60 323.10 209.32 319.78
  Q 210.37 314.90 212.81 312.31
  Q 240.14 283.39 267.38 254.37
  Z
  M 267.71 376.42
  L 233.96 348.92
  A 0.60 0.60 26.4 0 0 233.00 349.24
  L 214.06 425.69
  Q 213.72 427.08 214.69 426.19
  L 267.74 377.40
  A 0.65 0.65 -46.9 0 0 267.71 376.42
  Z"
/>
</svg>
