<?xml version="1.0" encoding="UTF-8" standalone="no"?>
<svg xmlns="http://www.w3.org/2000/svg" version="1.1" viewBox="0 0 512 512">
<g>
	<path d="M512,255.9c0,141.4-114.6,256-256,256l0,0c-141.4,0-256-114.6-256-256c0,0,0,0,0,0c0-141.4,114.6-256,256-256c0,0,0,0,0,0 C397.4-0.1,512,114.5,512,255.9L512,255.9z M272.8,256.8c32.8,3.1,62.6,14.2,89.3,33.2c6.2,4.4,12.2,9.2,17.8,14.4 c24.4,22.5,41.5,50,51.4,82.4c0.2,0.6,0.5,0.7,0.9,0.1c23.8-32.3,37.8-68.4,42.1-108.1c0.8-7.5,1.2-15.1,1.2-22.8 c-0.3-46.8-13.8-89.1-40.5-126.9c-4.5-6.3-9.2-12.3-14.1-18c-20.2-23-44.2-41-72-54c-35.2-16.4-72.4-23-111.7-19.6 c-35.1,3-67.6,13.8-97.4,32.5c-26.5,16.6-48.3,37.5-65.4,62.9c-20.4,30.2-32.6,63.6-36.5,100c-0.8,7.5-1.2,15.2-1.2,22.8 c0.2,48,14.6,91.7,43.3,131.2c0.4,0.5,0.6,0.5,0.8-0.1c8.1-26.1,20.8-49.1,38.2-68.8c4.9-5.6,10.3-10.9,16.2-16.1 c32.7-28.7,70.9-43.9,114.8-45.6C257.7,255.9,265.3,256.1,272.8,256.8z M356.7,332.5c-22.2-21.2-48.6-34.1-79-38.7 c-7.6-1.1-15.2-1.7-22.8-1.6c-23.3,0.1-45.2,5.5-65.7,16.1c-32.5,16.9-55.7,42.6-69.4,77.1c-4.5,11.2-7.4,22.3-8.7,33.4 c-0.1,1.1,0.3,2.2,1.2,2.9c38.1,32.1,81.3,49.8,129.5,53.1c7.6,0.5,15.2,0.6,22.8,0.3c51.3-2.2,96.6-20.2,136-54.1 c0.4-0.3,0.6-0.8,0.5-1.3C396.1,385.2,381.3,356.1,356.7,332.5z"/>
	<path d="M347.4,146.2c0,50.5-40.9,91.4-91.4,91.4s-91.4-40.9-91.4-91.4s40.9-91.4,91.4-91.4C306.5,54.9,347.4,95.8,347.4,146.2z M310.8,146.3c0-30.3-24.5-54.8-54.8-54.8c-30.3,0-54.8,24.5-54.8,54.8l0,0c0,30.3,24.5,54.8,54.8,54.8S310.8,176.5,310.8,146.3z"
	/>
</g>
</svg>
