<?xml version="1.0" encoding="UTF-8" standalone="no"?>
<!DOCTYPE svg PUBLIC "-//W3C//DTD SVG 1.1//EN" "http://www.w3.org/Graphics/SVG/1.1/DTD/svg11.dtd">
<svg xmlns="http://www.w3.org/2000/svg" version="1.1" viewBox="0 0 512 512">
<path fill="#000000" d="
  M 198.56 0.00
  L 313.81 0.00
  Q 362.53 1.40 402.69 25.81
  Q 452.29 55.97 476.19 110.31
  Q 486.54 133.86 489.45 161.53
  Q 490.24 169.09 490.33 181.49
  Q 490.54 212.05 490.50 262.00
  Q 490.44 328.80 449.56 378.97
  Q 443.32 386.64 436.05 393.69
  Q 381.58 446.51 303.91 445.62
  Q 293.67 445.50 293.58 445.50
  Q 264.62 445.50 235.18 445.50
  A 1.94 1.90 21.9 0 0 233.81 446.07
  Q 209.06 470.81 185.19 494.94
  Q 179.55 500.65 174.44 504.69
  Q 166.57 510.90 156.19 512.00
  L 153.69 512.00
  Q 141.63 510.85 135.31 501.69
  Q 131.69 496.43 130.18 489.65
  Q 129.27 485.56 129.15 476.78
  Q 128.84 454.13 129.01 430.60
  A 1.34 1.33 -77.5 0 0 128.25 429.39
  Q 69.89 401.96 40.81 344.94
  Q 24.86 313.65 22.41 276.99
  Q 22.00 270.78 22.00 257.00
  Q 22.00 223.63 22.00 190.26
  Q 22.00 176.11 22.35 170.26
  Q 25.59 116.35 57.69 73.19
  Q 81.06 41.75 116.31 22.06
  Q 153.34 1.38 198.56 0.00
  Z
  M 54.04 157.20
  Q 52.07 169.10 52.00 186.75
  Q 51.84 225.38 52.16 264.01
  Q 52.26 276.39 53.27 283.95
  Q 57.54 316.05 74.19 343.06
  Q 99.95 384.87 145.56 404.24
  Q 152.73 407.28 154.82 409.36
  Q 159.00 413.51 159.00 420.00
  Q 159.00 448.62 159.00 477.27
  Q 159.00 478.76 160.05 477.70
  Q 187.25 450.28 214.65 422.97
  Q 214.71 422.91 216.41 421.09
  Q 218.84 418.50 221.98 417.04
  Q 224.72 415.76 229.75 415.71
  Q 270.37 415.32 311.00 415.29
  Q 339.35 415.28 365.19 404.94
  Q 396.65 392.34 419.69 367.82
  Q 426.49 360.58 432.34 352.35
  Q 458.06 316.18 460.29 271.49
  Q 460.49 267.50 460.53 251.50
  Q 460.62 216.87 460.34 182.25
  Q 460.24 169.82 459.30 162.30
  Q 453.30 114.45 421.06 79.44
  Q 377.28 31.88 312.25 30.02
  Q 311.59 30.00 292.24 30.00
  Q 249.25 30.00 206.25 30.00
  Q 146.65 30.00 103.46 67.99
  Q 62.91 103.66 54.04 157.20
  Z"
/>
<path fill="#000000" d="
  M 250.30 92.43
  Q 241.52 84.56 246.75 74.25
  Q 248.93 69.96 253.31 67.88
  Q 256.37 66.43 261.91 66.50
  Q 310.01 67.09 349.63 94.39
  Q 384.68 118.54 403.03 156.95
  Q 417.80 187.87 418.26 222.05
  Q 418.34 228.37 416.67 231.68
  Q 414.60 235.79 410.48 237.97
  Q 406.80 239.92 402.23 239.58
  Q 393.30 238.92 389.81 230.82
  Q 388.61 228.04 388.38 222.46
  Q 385.94 162.55 341.10 125.44
  Q 333.14 118.86 324.77 113.93
  Q 295.62 96.79 261.25 96.50
  Q 254.79 96.45 250.30 92.43
  Z"
/>
<path fill="#000000" d="
  M 216.47 209.91
  A 0.83 0.83 -44.8 0 0 216.46 211.09
  L 262.18 256.80
  A 0.98 0.98 44.8 0 0 263.57 256.80
  Q 268.81 251.56 273.40 246.66
  Q 282.10 237.37 293.69 243.31
  Q 295.21 244.09 299.80 248.69
  Q 325.37 274.31 350.77 300.09
  Q 355.31 304.70 356.43 307.85
  Q 358.58 313.95 355.19 320.44
  Q 354.09 322.54 349.85 326.65
  Q 345.38 330.99 345.33 331.05
  Q 329.89 346.49 314.48 361.98
  Q 295.50 381.04 269.25 379.00
  Q 255.90 377.96 244.63 370.63
  Q 239.64 367.38 229.66 357.45
  Q 172.61 300.64 115.80 243.59
  Q 105.90 233.64 102.64 228.60
  Q 95.26 217.23 94.25 203.75
  Q 92.34 178.40 110.61 159.87
  Q 129.51 140.70 148.71 121.86
  Q 152.66 117.97 155.69 116.90
  Q 160.63 115.15 165.52 116.92
  Q 168.66 118.05 173.05 122.36
  Q 199.34 148.17 225.15 174.46
  Q 230.06 179.45 231.33 182.74
  Q 233.50 188.31 231.00 193.69
  Q 229.63 196.61 224.18 202.18
  Q 220.27 206.17 216.47 209.91
  Z
  M 137.23 222.62
  Q 194.22 280.09 251.67 337.09
  Q 259.42 344.77 263.32 346.71
  Q 270.54 350.29 278.95 348.71
  Q 282.91 347.96 286.29 346.08
  Q 289.73 344.16 292.57 341.32
  Q 306.56 327.31 320.47 313.41
  A 0.93 0.93 0.0 0 0 320.47 312.09
  L 285.89 277.51
  A 0.56 0.56 0.0 0 0 285.10 277.52
  Q 279.86 282.90 274.46 288.07
  Q 270.78 291.59 267.68 292.69
  Q 258.93 295.78 251.69 288.81
  Q 239.52 277.10 185.98 222.90
  Q 181.93 218.79 180.74 215.69
  Q 178.52 209.93 181.00 204.48
  Q 182.35 201.52 187.78 196.10
  Q 191.59 192.29 195.47 188.41
  A 0.93 0.93 0.0 0 0 195.47 187.09
  L 161.22 152.84
  A 0.94 0.94 -45.5 0 0 159.89 152.85
  Q 147.65 165.28 135.73 177.17
  Q 128.30 184.58 126.32 188.65
  Q 122.54 196.43 124.75 205.25
  Q 126.63 212.75 132.99 218.67
  Q 137.16 222.55 137.23 222.62
  Z"
/>
<path fill="#000000" d="
  M 247.66 153.92
  Q 241.11 145.05 248.81 135.56
  Q 252.98 130.42 260.75 130.57
  Q 270.36 130.74 279.70 132.94
  Q 324.52 143.50 344.69 183.81
  Q 353.47 201.37 353.99 222.04
  Q 354.14 227.98 352.68 231.28
  Q 350.55 236.08 345.75 238.25
  Q 337.25 242.10 330.31 236.94
  Q 324.16 232.37 324.00 224.12
  Q 323.95 221.94 323.95 221.89
  Q 322.57 195.87 303.65 178.10
  Q 285.58 161.14 261.00 160.75
  Q 256.74 160.68 253.36 158.96
  Q 250.18 157.34 247.66 153.92
  Z"
/>
</svg>
