<?xml version="1.0" encoding="UTF-8"?>
<svg id="a" data-name="Layer 1" xmlns="http://www.w3.org/2000/svg" viewBox="0 0 43.4 12.6">
  <path d="m17.4.3l-2.2,12.3h3.5L20.9.3s-3.5,0-3.5,0Z" fill="#878787"/>
  <path d="m12.2.3l-3.4,8.4-.4-1.3c-.7-1.5-2.6-3.7-4.9-5.1l3.2,10.2h3.7L16,.3h-3.8Z" fill="#878787"/>
  <path d="m7.1,1.2c-.2-.8-.8-1-1.5-1H0v.2c4.3,1,7.1,3.3,8.2,6.2l-1.1-5.4Z" fill="#878787"/>
  <path d="m28.1,2.6c.9,0,1.8.1,2.6.5l.3.1.5-2.7c-1-.3-2.1-.5-3.2-.5-3.5,0-5.9,1.7-6,4,0,1.8,1.8,2.7,3.1,3.3,1.3.6,1.8,1,1.8,1.5,0,.8-1.1,1.2-2.1,1.2-1.1,0-2.3-.2-3.3-.6l-.5-.2-.5,2.7c1.3.4,2.6.7,3.9.7,3.7,0,6.1-1.6,6.1-4.2,0-1.4-.9-2.5-3-3.3-1.2-.6-2-.9-2-1.5.2-.4.9-1,2.3-1Z" fill="#878787"/>
  <path d="m40.5.3h-2.7c-.8,0-1.5.2-1.8,1l-5.2,11.2h3.7s.6-1.5.7-1.8h4.5c.1.4.4,1.8.4,1.8h3.3L40.5.3Zm-4.3,7.9c.3-.7,1.4-3.4,1.4-3.4,0,0,.3-.7.5-1.2l.2,1.1s.7,2.9.8,3.5h-2.9Z" fill="#878787"/>
</svg>